<?xml version="1.0" encoding="UTF-8"?>
<svg version="1.1" xmlns="http://www.w3.org/2000/svg" width="300" height="300">
<path d="M0 0 C43.56 0 87.12 0 132 0 C132 3.3 132 6.6 132 10 C134.97 10 137.94 10 141 10 C142.07165278 14.28661112 141.89514493 17.91556227 141.5625 22.25 C141.376875 24.8075 141.19125 27.365 141 30 C151.23 30 161.46 30 172 30 C172 32.97 172 35.94 172 39 C175.3 39.33 178.6 39.66 182 40 C182 42.97 182 45.94 182 49 C206.255 49.495 206.255 49.495 231 50 C232.00000429 54.00001715 231.80688405 56.05523353 231 60 C234.63 60 238.26 60 242 60 C242 63.3 242 66.6 242 70 C244.97 70 247.94 70 251 70 C251 126.43 251 182.86 251 241 C247.7 241 244.4 241 241 241 C241 244.3 241 247.6 241 251 C164.77 251 88.54 251 10 251 C10 247.7 10 244.4 10 241 C6.7 241 3.4 241 0 241 C0 237.7 0 234.4 0 231 C-3.3 231 -6.6 231 -10 231 C-10 158.07 -10 85.14 -10 10 C-6.7 10 -3.4 10 0 10 C0 6.7 0 3.4 0 0 Z " fill="#C50B29" transform="translate(29,24)"/>
<path d="M0 0 C43.56 0 87.12 0 132 0 C132 3.3 132 6.6 132 10 C134.97 10 137.94 10 141 10 C142.07165278 14.28661112 141.89514493 17.91556227 141.5625 22.25 C141.376875 24.8075 141.19125 27.365 141 30 C151.23 30 161.46 30 172 30 C172 32.97 172 35.94 172 39 C175.3 39.33 178.6 39.66 182 40 C182 42.97 182 45.94 182 49 C206.255 49.495 206.255 49.495 231 50 C232.00000429 54.00001715 231.80688405 56.05523353 231 60 C234.63 60 238.26 60 242 60 C242 63.3 242 66.6 242 70 C244.97 70 247.94 70 251 70 C251 126.43 251 182.86 251 241 C247.7 241 244.4 241 241 241 C241 244.3 241 247.6 241 251 C164.77 251 88.54 251 10 251 C10 247.7 10 244.4 10 241 C6.7 241 3.4 241 0 241 C0 237.7 0 234.4 0 231 C-3.3 231 -6.6 231 -10 231 C-10 158.07 -10 85.14 -10 10 C-6.7 10 -3.4 10 0 10 C0 6.7 0 3.4 0 0 Z M1 1 C1 4.3 1 7.6 1 11 C-2.3 11 -5.6 11 -9 11 C-9 83.27 -9 155.54 -9 230 C-6.03 230.33 -3.06 230.66 0 231 C0.33 233.97 0.66 236.94 1 240 C4.3 240 7.6 240 11 240 C11 243.3 11 246.6 11 250 C86.57 250 162.14 250 240 250 C240 246.7 240 243.4 240 240 C243.3 240 246.6 240 250 240 C250 184.23 250 128.46 250 71 C246.7 71 243.4 71 240 71 C240 67.7 240 64.4 240 61 C237.03 61 234.06 61 231 61 C231 117.1 231 173.2 231 231 C191.4 231 151.8 231 111 231 C111 227.7 111 224.4 111 221 C104.4 221 97.8 221 91 221 C91 217.7 91 214.4 91 211 C94.3 211 97.6 211 101 211 C101 207.7 101 204.4 101 201 C97.7 201 94.4 201 91 201 C91 197.7 91 194.4 91 191 C87.7 191 84.4 191 81 191 C81 194.3 81 197.6 81 201 C77.7 201 74.4 201 71 201 C71 204.3 71 207.6 71 211 C73.97 211 76.94 211 80 211 C80 214.3 80 217.6 80 221 C73.73 221 67.46 221 61 221 C61 214.07 61 207.14 61 200 C51.1 200 41.2 200 31 200 C31 197.03 31 194.06 31 191 C27.7 191 24.4 191 21 191 C21 187.7 21 184.4 21 181 C17.7 181 14.4 181 11 181 C11 174.4 11 167.8 11 161 C14.3 161 17.6 161 21 161 C21 164.3 21 167.6 21 171 C47.4 171 73.8 171 101 171 C101 141.3 101 111.6 101 81 C71.3 81 41.6 81 11 81 C11 77.7 11 74.4 11 71 C27.5 71 44 71 61 71 C61 64.4 61 57.8 61 51 C64.3 51 67.6 51 71 51 C71 47.7 71 44.4 71 41 C103.67 41 136.34 41 170 41 C170 37.7 170 34.4 170 31 C160.1 31 150.2 31 140 31 C140 24.4 140 17.8 140 11 C137.03 11 134.06 11 131 11 C131 7.7 131 4.4 131 1 C88.1 1 45.2 1 1 1 Z " fill="#F20B31" transform="translate(29,24)"/>
<path d="M0 0 C16.5 0 33 0 50 0 C50 6.6 50 13.2 50 20 C53.3 20 56.6 20 60 20 C60 76.1 60 132.2 60 190 C53.4 190 46.8 190 40 190 C40 186.7 40 183.4 40 180 C33.4 180 26.8 180 20 180 C20 176.7 20 173.4 20 170 C23.3 170 26.6 170 30 170 C30 166.7 30 163.4 30 160 C26.7 160 23.4 160 20 160 C20 156.7 20 153.4 20 150 C16.7 150 13.4 150 10 150 C10 153.3 10 156.6 10 160 C6.7 160 3.4 160 0 160 C0 163.3 0 166.6 0 170 C2.97 170 5.94 170 9 170 C9 173.3 9 176.6 9 180 C2.73 180 -3.54 180 -10 180 C-10 173.07 -10 166.14 -10 159 C-19.9 159 -29.8 159 -40 159 C-40 156.03 -40 153.06 -40 150 C-43.3 150 -46.6 150 -50 150 C-50 146.7 -50 143.4 -50 140 C-53.3 140 -56.6 140 -60 140 C-60 133.4 -60 126.8 -60 120 C-56.7 120 -53.4 120 -50 120 C-50 123.3 -50 126.6 -50 130 C-23.6 130 2.8 130 30 130 C30 100.3 30 70.6 30 40 C0.3 40 -29.4 40 -60 40 C-60 36.7 -60 33.4 -60 30 C-43.5 30 -27 30 -10 30 C-10 23.4 -10 16.8 -10 10 C-6.7 10 -3.4 10 0 10 C0 6.7 0 3.4 0 0 Z " fill="#DB0A2B" transform="translate(100,65)"/>
<path d="M0 0 C29.7 0 59.4 0 90 0 C90 29.7 90 59.4 90 90 C63.6 90 37.2 90 10 90 C10 86.7 10 83.4 10 80 C6.7 80 3.4 80 0 80 C0 53.6 0 27.2 0 0 Z " fill="#DDDDDD" transform="translate(40,105)"/>
<path d="M0 0 C2.97 0 5.94 0 9 0 C9 3.3 9 6.6 9 10 C12.3 10 15.6 10 19 10 C19 65.77 19 121.54 19 179 C15.7 179 12.4 179 9 179 C9 182.3 9 185.6 9 189 C-66.57 189 -142.14 189 -220 189 C-220 185.7 -220 182.4 -220 179 C-223.3 179 -226.6 179 -230 179 C-230 176.03 -230 173.06 -230 170 C-154.1 170 -78.2 170 0 170 C0 113.9 0 57.8 0 0 Z " fill="#233569" transform="translate(260,85)"/>
<path d="M0 0 C43.56 0 87.12 0 132 0 C132 3.3 132 6.6 132 10 C134.97 10 137.94 10 141 10 C142.07165278 14.28661112 141.89514493 17.91556227 141.5625 22.25 C141.376875 24.8075 141.19125 27.365 141 30 C151.23 30 161.46 30 172 30 C172 32.97 172 35.94 172 39 C175.3 39.33 178.6 39.66 182 40 C182 42.97 182 45.94 182 49 C206.255 49.495 206.255 49.495 231 50 C232.00000429 54.00001715 231.80688405 56.05523353 231 60 C234.63 60 238.26 60 242 60 C242 63.3 242 66.6 242 70 C244.97 70 247.94 70 251 70 C251 126.43 251 182.86 251 241 C247.7 241 244.4 241 241 241 C241 244.3 241 247.6 241 251 C164.77 251 88.54 251 10 251 C10 247.7 10 244.4 10 241 C6.7 241 3.4 241 0 241 C0 237.7 0 234.4 0 231 C-3.3 231 -6.6 231 -10 231 C-10 158.07 -10 85.14 -10 10 C-6.7 10 -3.4 10 0 10 C0 6.7 0 3.4 0 0 Z M1 1 C1 4.3 1 7.6 1 11 C-2.3 11 -5.6 11 -9 11 C-9 83.27 -9 155.54 -9 230 C-6.03 230.33 -3.06 230.66 0 231 C0.33 233.97 0.66 236.94 1 240 C4.3 240 7.6 240 11 240 C11 243.3 11 246.6 11 250 C86.57 250 162.14 250 240 250 C240 246.7 240 243.4 240 240 C243.3 240 246.6 240 250 240 C250 184.23 250 128.46 250 71 C246.7 71 243.4 71 240 71 C240 67.7 240 64.4 240 61 C237.03 61 234.06 61 231 61 C231 117.1 231 173.2 231 231 C198 231 165 231 131 231 C131 174.9 131 118.8 131 61 C127.7 61 124.4 61 121 61 C121 54.4 121 47.8 121 41 C137.17 41 153.34 41 170 41 C170 37.7 170 34.4 170 31 C160.1 31 150.2 31 140 31 C140 24.4 140 17.8 140 11 C137.03 11 134.06 11 131 11 C131 7.7 131 4.4 131 1 C88.1 1 45.2 1 1 1 Z M161 51 C161 54.3 161 57.6 161 61 C157.7 61 154.4 61 151 61 C151 64.3 151 67.6 151 71 C147.7 71 144.4 71 141 71 C141 87.17 141 103.34 141 120 C167.4 120 193.8 120 221 120 C221 126.93 221 133.86 221 141 C194.6 141 168.2 141 141 141 C141 150.9 141 160.8 141 171 C150.9 171 160.8 171 171 171 C171 177.93 171 184.86 171 192 C167.7 192 164.4 192 161 192 C161 194.64 161 197.28 161 200 C151.1 200.495 151.1 200.495 141 201 C141 207.6 141 214.2 141 221 C150.9 221 160.8 221 171 221 C171 217.7 171 214.4 171 211 C174.3 211 177.6 211 181 211 C181 214.3 181 217.6 181 221 C197.17 221 213.34 221 230 221 C230 164.9 230 108.8 230 51 C207.23 51 184.46 51 161 51 Z " fill="#CD3D56" transform="translate(29,24)"/>
<path d="M0 0 C42.9 0 85.8 0 130 0 C130 3.3 130 6.6 130 10 C132.97 10 135.94 10 139 10 C139 16.6 139 23.2 139 30 C148.9 30 158.8 30 169 30 C169 33.3 169 36.6 169 40 C136.33 40 103.66 40 70 40 C70 43.3 70 46.6 70 50 C66.7 50 63.4 50 60 50 C60 53.3 60 56.6 60 60 C40.2 60 20.4 60 0 60 C0 40.2 0 20.4 0 0 Z " fill="#F00C32" transform="translate(30,25)"/>
<path d="M0 0 C26.4 0 52.8 0 80 0 C80 6.6 80 13.2 80 20 C82.97 20 85.94 20 89 20 C89 39.8 89 59.6 89 80 C72.83 80 56.66 80 40 80 C40 76.7 40 73.4 40 70 C36.7 70 33.4 70 30 70 C30 73.3 30 76.6 30 80 C20.1 80 10.2 80 0 80 C0 73.4 0 66.8 0 60 C9.9 59.505 9.9 59.505 20 59 C20 56.36 20 53.72 20 51 C23.3 51 26.6 51 30 51 C30 44.07 30 37.14 30 30 C20.1 30 10.2 30 0 30 C0 20.1 0 10.2 0 0 Z " fill="#DB0A2C" transform="translate(170,165)"/>
<path d="M0 0 C16.5 0 33 0 50 0 C50 6.6 50 13.2 50 20 C46.7 20 43.4 20 40 20 C40 23.3 40 26.6 40 30 C42.97 30 45.94 30 49 30 C49 72.57 49 115.14 49 159 C46.03 159 43.06 159 40 159 C40 156.03 40 153.06 40 150 C36.7 150 33.4 150 30 150 C30 113.7 30 77.4 30 40 C0.3 40 -29.4 40 -60 40 C-60 36.7 -60 33.4 -60 30 C-43.5 30 -27 30 -10 30 C-10 23.4 -10 16.8 -10 10 C-6.7 10 -3.4 10 0 10 C0 6.7 0 3.4 0 0 Z " fill="#F10B2F" transform="translate(100,65)"/>
<path d="M0 0 C23.1 0 46.2 0 70 0 C70 16.5 70 33 70 50 C46.9 50 23.8 50 0 50 C0 33.5 0 17 0 0 Z " fill="#202020" transform="translate(50,115)"/>
<path d="M0 0 C26.4 0 52.8 0 80 0 C80 9.9 80 19.8 80 30 C53.6 30 27.2 30 0 30 C0 20.1 0 10.2 0 0 Z " fill="#423637" transform="translate(170,105)"/>
<path d="M0 0 C75.9 0 151.8 0 230 0 C230 3.3 230 6.6 230 10 C201.48827124 10.02336994 172.97654392 10.04099931 144.46480751 10.05181217 C131.2260468 10.05696642 117.98729204 10.06399254 104.74853516 10.07543945 C93.20840176 10.08541289 81.66827267 10.09185977 70.12813509 10.09408849 C64.01888582 10.09539107 57.9096489 10.09844834 51.80040359 10.10573006 C46.04672927 10.11253221 40.29307234 10.11460842 34.53939438 10.11310768 C32.43114375 10.11338212 30.32289253 10.1153623 28.21464539 10.11920547 C25.32794113 10.1242083 22.44130183 10.12297411 19.55459595 10.12025452 C18.72771574 10.12316736 17.90083553 10.1260802 17.04889834 10.12908131 C11.30773898 10.11454291 5.70625083 9.63827875 0 9 C0 6.03 0 3.06 0 0 Z " fill="#010204" transform="translate(30,255)"/>
<path d="M0 0 C42.9 0 85.8 0 130 0 C130 3.3 130 6.6 130 10 C132.97 10 135.94 10 139 10 C139 16.6 139 23.2 139 30 C148.9 30 158.8 30 169 30 C169 33.3 169 36.6 169 40 C152.83 40 136.66 40 120 40 C120 30.1 120 20.2 120 10 C80.4 10 40.8 10 0 10 C0 6.7 0 3.4 0 0 Z " fill="#080002" transform="translate(30,25)"/>
<path d="M0 0 C2.97 0 5.94 0 9 0 C9 72.27 9 144.54 9 219 C6.03 219 3.06 219 0 219 C0 146.73 0 74.46 0 0 Z " fill="#000000" transform="translate(20,35)"/>
<path d="M0 0 C6.6 0 13.2 0 20 0 C20 56.1 20 112.2 20 170 C16.7 170 13.4 170 10 170 C10 163.4 10 156.8 10 150 C6.7 150 3.4 150 0 150 C0 146.7 0 143.4 0 140 C3.3 140 6.6 140 10 140 C10 97.1 10 54.2 10 10 C6.7 10 3.4 10 0 10 C0 6.7 0 3.4 0 0 Z " fill="#88051B" transform="translate(140,85)"/>
<path d="M0 0 C2.97 0 5.94 0 9 0 C10.05897188 8.61752585 10.13539944 17.1555484 10.11352539 25.82275391 C10.11324284 27.40056354 10.11340258 28.9783733 10.1139679 30.55618286 C10.11425322 34.81166501 10.10839949 39.06711861 10.10139394 43.32259417 C10.09511612 47.78019596 10.09455311 52.23779852 10.09336853 56.69540405 C10.09026822 65.12407751 10.08207245 73.5527379 10.07201904 81.98140562 C10.06081741 91.5824204 10.05533727 101.18343584 10.05032361 110.78445554 C10.03988868 130.52297763 10.02231455 150.26148799 10 170 C6.7 170 3.4 170 0 170 C0 113.9 0 57.8 0 0 Z " fill="#010203" transform="translate(260,85)"/>
<path d="M0 0 C26.4 0 52.8 0 80 0 C80 6.6 80 13.2 80 20 C53.6 20 27.2 20 0 20 C0 13.4 0 6.8 0 0 Z " fill="#2EA0EC" transform="translate(170,145)"/>
<path d="M0 0 C3.3 0 6.6 0 10 0 C10 3.3 10 6.6 10 10 C16.6 10 23.2 10 30 10 C30 13.3 30 16.6 30 20 C33.3 20 36.6 20 40 20 C40 23.3 40 26.6 40 30 C10.3 30 -19.4 30 -50 30 C-50 26.7 -50 23.4 -50 20 C-33.5 20 -17 20 0 20 C0 13.4 0 6.8 0 0 Z " fill="#DC0F30" transform="translate(90,75)"/>
<path d="M0 0 C6.27 0 12.54 0 19 0 C19.78125907 6.83601687 20 13.01206347 20 20 C33.2 20 46.4 20 60 20 C60 22.97 60 25.94 60 29 C33.6 29 7.2 29 -20 29 C-20 26.03 -20 23.06 -20 20 C-16.7 20 -13.4 20 -10 20 C-10 16.7 -10 13.4 -10 10 C-6.7 10 -3.4 10 0 10 C0 6.7 0 3.4 0 0 Z " fill="#DC092D" transform="translate(190,75)"/>
<path d="M0 0 C0.33 0 0.66 0 1 0 C1 29.7 1 59.4 1 90 C-25.4 90 -51.8 90 -79 90 C-79 86.7 -79 83.4 -79 80 C-76.03 80 -73.06 80 -70 80 C-70 76.7 -70 73.4 -70 70 C-66.37 70 -62.74 70 -59 70 C-59 73.3 -59 76.6 -59 80 C-49.43 80 -39.86 80 -30 80 C-30 76.7 -30 73.4 -30 70 C-23.07 70 -16.14 70 -9 70 C-9 73.3 -9 76.6 -9 80 C-6.03 80 -3.06 80 0 80 C0 53.6 0 27.2 0 0 Z " fill="#D0C9CA" transform="translate(129,105)"/>
<path d="M0 0 C2.97 0 5.94 0 9 0 C9 42.57 9 85.14 9 129 C6.03 129 3.06 129 0 129 C0 86.43 0 43.86 0 0 Z " fill="#FF0D35" transform="translate(140,95)"/>
<path d="M0 0 C13.2 0 26.4 0 40 0 C40 3.3 40 6.6 40 10 C36.7 10 33.4 10 30 10 C30 13.3 30 16.6 30 20 C26.7 20 23.4 20 20 20 C20 22.97 20 25.94 20 29 C6.8 29 -6.4 29 -20 29 C-20 26.03 -20 23.06 -20 20 C-16.7 20 -13.4 20 -10 20 C-10 16.7 -10 13.4 -10 10 C-6.7 10 -3.4 10 0 10 C0 6.7 0 3.4 0 0 Z " fill="#202323" transform="translate(200,105)"/>
<path d="M0 0 C0.33 0 0.66 0 1 0 C1 16.5 1 33 1 50 C-22.1 50 -45.2 50 -69 50 C-69 49.67 -69 49.34 -69 49 C-59.1 49 -49.2 49 -39 49 C-39 46.03 -39 43.06 -39 40 C-35.7 40 -32.4 40 -29 40 C-29 36.7 -29 33.4 -29 30 C-25.7 30 -22.4 30 -19 30 C-19 26.7 -19 23.4 -19 20 C-15.7 20 -12.4 20 -9 20 C-9 16.7 -9 13.4 -9 10 C-6.03 10 -3.06 10 0 10 C0 6.7 0 3.4 0 0 Z " fill="#3F3F3F" transform="translate(119,115)"/>
<path d="M0 0 C12.87 0 25.74 0 39 0 C39 2.97 39 5.94 39 9 C35.7 9 32.4 9 29 9 C29 12.3 29 15.6 29 19 C25.7 19 22.4 19 19 19 C19 22.3 19 25.6 19 29 C15.7 29 12.4 29 9 29 C9 32.3 9 35.6 9 39 C6.03 39 3.06 39 0 39 C0 26.13 0 13.26 0 0 Z " fill="#383838" transform="translate(51,116)"/>
<path d="M0 0 C9.9 0 19.8 0 30 0 C30 9.9 30 19.8 30 30 C20.1 30 10.2 30 0 30 C0 20.1 0 10.2 0 0 Z " fill="#29AAFA" transform="translate(40,45)"/>
<path d="M0 0 C0.33 0 0.66 0 1 0 C1 16.5 1 33 1 50 C20.8 50 40.6 50 61 50 C61 53.3 61 56.6 61 60 C41.2 60 21.4 60 1 60 C1 112.8 1 165.6 1 220 C0.67 220 0.34 220 0 220 C0 147.4 0 74.8 0 0 Z " fill="#790518" transform="translate(29,35)"/>
<path d="M0 0 C26.07 0 52.14 0 79 0 C79 3.3 79 6.6 79 10 C53.26 10 27.52 10 1 10 C1 12.97 1 15.94 1 19 C0.67 19 0.34 19 0 19 C0 12.73 0 6.46 0 0 Z " fill="#22AAFC" transform="translate(170,145)"/>
<path d="M0 0 C26.4 0 52.8 0 80 0 C80 2.97 80 5.94 80 9 C53.6 9 27.2 9 0 9 C0 6.03 0 3.06 0 0 Z " fill="#DD0829" transform="translate(170,135)"/>
<path d="M0 0 C9.9 0 19.8 0 30 0 C30 6.6 30 13.2 30 20 C20.1 20 10.2 20 0 20 C0 13.4 0 6.8 0 0 Z " fill="#0D2C29" transform="translate(220,225)"/>
<path d="M0 0 C9.9 0 19.8 0 30 0 C30 6.6 30 13.2 30 20 C20.1 20 10.2 20 0 20 C0 13.4 0 6.8 0 0 Z " fill="#0C2C29" transform="translate(170,225)"/>
<path d="M0 0 C9.9 0 19.8 0 30 0 C30 6.6 30 13.2 30 20 C20.1 20 10.2 20 0 20 C0 13.4 0 6.8 0 0 Z " fill="#51AC5E" transform="translate(60,225)"/>
<path d="M0 0 C9.9 0 19.8 0 30 0 C30 6.6 30 13.2 30 20 C20.1 20 10.2 20 0 20 C0 13.4 0 6.8 0 0 Z " fill="#DBD9D9" transform="translate(170,195)"/>
<path d="M0 0 C9.9 0 19.8 0 30 0 C30 3.3 30 6.6 30 10 C26.7 10 23.4 10 20 10 C20 13.3 20 16.6 20 20 C16.7 20 13.4 20 10 20 C10 22.97 10 25.94 10 29 C6.7 29 3.4 29 0 29 C0 19.43 0 9.86 0 0 Z " fill="#343938" transform="translate(170,105)"/>
<path d="M0 0 C3.3 0 6.6 0 10 0 C10 3.3 10 6.6 10 10 C13.3 10 16.6 10 20 10 C20 13.3 20 16.6 20 20 C16.7 20 13.4 20 10 20 C10 23.3 10 26.6 10 30 C6.7 30 3.4 30 0 30 C0 26.7 0 23.4 0 20 C-3.3 20 -6.6 20 -10 20 C-10 16.7 -10 13.4 -10 10 C-6.7 10 -3.4 10 0 10 C0 6.7 0 3.4 0 0 Z " fill="#001916" transform="translate(110,215)"/>
<path d="M0 0 C16.17 0 32.34 0 49 0 C49 3.3 49 6.6 49 10 C32.83 10 16.66 10 0 10 C0 6.7 0 3.4 0 0 Z " fill="#070001" transform="translate(210,75)"/>
<path d="M0 0 C13.2 0 26.4 0 40 0 C40 3.3 40 6.6 40 10 C26.8 10 13.6 10 0 10 C0 6.7 0 3.4 0 0 Z " fill="#8A061C" transform="translate(100,65)"/>
<path d="M0 0 C6.6 0 13.2 0 20 0 C20 6.6 20 13.2 20 20 C13.4 20 6.8 20 0 20 C0 13.4 0 6.8 0 0 Z " fill="#A1D5F8" transform="translate(50,55)"/>
<path d="M0 0 C9.57 0 19.14 0 29 0 C29 3.3 29 6.6 29 10 C19.43 10 9.86 10 0 10 C0 6.7 0 3.4 0 0 Z " fill="#00241F" transform="translate(220,225)"/>
<path d="M0 0 C9.57 0 19.14 0 29 0 C29 3.3 29 6.6 29 10 C19.43 10 9.86 10 0 10 C0 6.7 0 3.4 0 0 Z " fill="#00241F" transform="translate(170,225)"/>
<path d="M0 0 C2.97 0 5.94 0 9 0 C9 9.57 9 19.14 9 29 C7.35 29 5.7 29 4 29 C3.67 26.36 3.34 23.72 3 21 C2.34 23.64 1.68 26.28 1 29 C0.67 29 0.34 29 0 29 C0 19.43 0 9.86 0 0 Z " fill="#1D2A53" transform="translate(270,95)"/>
<path d="M0 0 C2.97 0 5.94 0 9 0 C9 6.27 9 12.54 9 19 C6.03 19 3.06 19 0 19 C0 16.36 0 13.72 0 11 C-13.2 11 -26.4 11 -40 11 C-40 10.67 -40 10.34 -40 10 C-26.8 10 -13.6 10 0 10 C0 6.7 0 3.4 0 0 Z " fill="#FE0D34" transform="translate(140,65)"/>
<path d="M0 0 C3.3 0 6.6 0 10 0 C10 6.6 10 13.2 10 20 C6.7 20 3.4 20 0 20 C0 13.4 0 6.8 0 0 Z " fill="#87051B" transform="translate(150,235)"/>
<path d="M0 0 C3.3 0 6.6 0 10 0 C10 6.6 10 13.2 10 20 C6.7 20 3.4 20 0 20 C0 13.4 0 6.8 0 0 Z " fill="#F90C34" transform="translate(140,235)"/>
<path d="M0 0 C6.6 0 13.2 0 20 0 C20 3.3 20 6.6 20 10 C13.4 10 6.8 10 0 10 C0 6.7 0 3.4 0 0 Z " fill="#4C0410" transform="translate(140,225)"/>
<path d="M0 0 C6.6 0 13.2 0 20 0 C20 3.3 20 6.6 20 10 C13.4 10 6.8 10 0 10 C0 6.7 0 3.4 0 0 Z " fill="#0F1816" transform="translate(230,175)"/>
<path d="M0 0 C6.6 0 13.2 0 20 0 C20 3.3 20 6.6 20 10 C13.4 10 6.8 10 0 10 C0 6.7 0 3.4 0 0 Z " fill="#0F1816" transform="translate(200,175)"/>
<path d="M0 0 C6.6 0 13.2 0 20 0 C20 3.3 20 6.6 20 10 C13.4 10 6.8 10 0 10 C0 6.7 0 3.4 0 0 Z " fill="#A7A7A7" transform="translate(100,175)"/>
<path d="M0 0 C6.6 0 13.2 0 20 0 C20 3.3 20 6.6 20 10 C13.4 10 6.8 10 0 10 C0 6.7 0 3.4 0 0 Z " fill="#4E0410" transform="translate(140,85)"/>
<path d="M0 0 C3.3 0 6.6 0 10 0 C10 6.6 10 13.2 10 20 C6.7 20 3.4 20 0 20 C0 13.4 0 6.8 0 0 Z " fill="#88051B" transform="translate(150,65)"/>
<path d="M0 0 C6.6 0 13.2 0 20 0 C20 3.3 20 6.6 20 10 C13.4 10 6.8 10 0 10 C0 6.7 0 3.4 0 0 Z " fill="#5DBA65" transform="translate(90,45)"/>
<path d="M0 0 C2.97 0 5.94 0 9 0 C9 6.6 9 13.2 9 20 C6.03 20 3.06 20 0 20 C0 13.4 0 6.8 0 0 Z " fill="#1F2B53" transform="translate(160,35)"/>
<path d="M0 0 C0.33 0 0.66 0 1 0 C3.18587361 28.22118959 3.18587361 28.22118959 -2 36 C-4.07421807 31.85156387 -3.18492207 26.43278085 -3.1875 21.875 C-3.19974609 20.75867188 -3.21199219 19.64234375 -3.22460938 18.4921875 C-3.23555196 12.30597738 -2.90376499 6.90237918 -1 1 C-0.67 0.67 -0.34 0.34 0 0 Z " fill="#324268" transform="translate(273,115)"/>
<path d="M0 0 C3.3 0 6.6 0 10 0 C10 3.3 10 6.6 10 10 C6.7 10 3.4 10 0 10 C0 6.7 0 3.4 0 0 Z " fill="#0F302B" transform="translate(110,235)"/>
<path d="M0 0 C3.3 0 6.6 0 10 0 C10 3.3 10 6.6 10 10 C6.7 10 3.4 10 0 10 C0 6.7 0 3.4 0 0 Z " fill="#0D302B" transform="translate(120,225)"/>
<path d="M0 0 C3.3 0 6.6 0 10 0 C10 3.3 10 6.6 10 10 C6.7 10 3.4 10 0 10 C0 6.7 0 3.4 0 0 Z " fill="#06302A" transform="translate(100,225)"/>
<path d="M0 0 C3.3 0 6.6 0 10 0 C10 3.3 10 6.6 10 10 C6.7 10 3.4 10 0 10 C0 6.7 0 3.4 0 0 Z " fill="#09302A" transform="translate(110,215)"/>
<path d="M0 0 C3.3 0 6.6 0 10 0 C10 3.3 10 6.6 10 10 C6.7 10 3.4 10 0 10 C0 6.7 0 3.4 0 0 Z " fill="#0D1816" transform="translate(40,215)"/>
<path d="M0 0 C3.3 0 6.6 0 10 0 C10 3.3 10 6.6 10 10 C6.7 10 3.4 10 0 10 C0 6.7 0 3.4 0 0 Z " fill="#136390" transform="translate(80,205)"/>
<path d="M0 0 C3.3 0 6.6 0 10 0 C10 3.3 10 6.6 10 10 C6.7 10 3.4 10 0 10 C0 6.7 0 3.4 0 0 Z " fill="#F9002B" transform="translate(60,205)"/>
<path d="M0 0 C3.3 0 6.6 0 10 0 C10 3.3 10 6.6 10 10 C6.7 10 3.4 10 0 10 C0 6.7 0 3.4 0 0 Z " fill="#FDDB1B" transform="translate(240,195)"/>
<path d="M0 0 C3.3 0 6.6 0 10 0 C10 3.3 10 6.6 10 10 C6.7 10 3.4 10 0 10 C0 6.7 0 3.4 0 0 Z " fill="#F8142E" transform="translate(60,175)"/>
<path d="M0 0 C3.3 0 6.6 0 10 0 C10 3.3 10 6.6 10 10 C6.7 10 3.4 10 0 10 C0 6.7 0 3.4 0 0 Z " fill="#CECCCC" transform="translate(40,175)"/>
<path d="M0 0 C3.3 0 6.6 0 10 0 C10 3.3 10 6.6 10 10 C6.7 10 3.4 10 0 10 C0 6.7 0 3.4 0 0 Z " fill="#8B061C" transform="translate(90,75)"/>
<path d="M0 0 C3.3 0 6.6 0 10 0 C10 3.3 10 6.6 10 10 C6.7 10 3.4 10 0 10 C0 6.7 0 3.4 0 0 Z " fill="#206498" transform="translate(60,65)"/>
<path d="M0 0 C3.3 0 6.6 0 10 0 C10 3.3 10 6.6 10 10 C6.7 10 3.4 10 0 10 C0 6.7 0 3.4 0 0 Z " fill="#A0D5F7" transform="translate(50,65)"/>
<path d="M0 0 C3.3 0 6.6 0 10 0 C10 3.3 10 6.6 10 10 C6.7 10 3.4 10 0 10 C0 6.7 0 3.4 0 0 Z " fill="#1D6B9E" transform="translate(40,65)"/>
<path d="M0 0 C3.3 0 6.6 0 10 0 C10 3.3 10 6.6 10 10 C6.7 10 3.4 10 0 10 C0 6.7 0 3.4 0 0 Z " fill="#DCDDDD" transform="translate(50,55)"/>
<path d="M0 0 C3.3 0 6.6 0 10 0 C10 3.3 10 6.6 10 10 C6.7 10 3.4 10 0 10 C0 6.7 0 3.4 0 0 Z " fill="#29ABFA" transform="translate(40,55)"/>
<path d="M0 0 C3.3 0 6.6 0 10 0 C10 3.3 10 6.6 10 10 C6.7 10 3.4 10 0 10 C0 6.7 0 3.4 0 0 Z " fill="#FAE343" transform="translate(90,45)"/>
<path d="M0 0 C3.3 0 6.6 0 10 0 C10 3.3 10 6.6 10 10 C6.7 10 3.4 10 0 10 C0 6.7 0 3.4 0 0 Z " fill="#226B9E" transform="translate(60,45)"/>
<path d="M0 0 C3.3 0 6.6 0 10 0 C10 3.3 10 6.6 10 10 C6.7 10 3.4 10 0 10 C0 6.7 0 3.4 0 0 Z " fill="#146DA3" transform="translate(40,45)"/>
<path d="M0 0 C6.27 0 12.54 0 19 0 C19 2.97 19 5.94 19 9 C16.03 9 13.06 9 10 9 C10 6.36 10 3.72 10 1 C7.03 1 4.06 1 1 1 C1 3.64 1 6.28 1 9 C0.67 9 0.34 9 0 9 C0 6.03 0 3.06 0 0 Z " fill="#240207" transform="translate(140,85)"/>
<path d="M0 0 C6.27 0 12.54 0 19 0 C19 2.97 19 5.94 19 9 C16.03 9 13.06 9 10 9 C10 6.36 10 3.72 10 1 C6.7 1 3.4 1 0 1 C0 0.67 0 0.34 0 0 Z " fill="#230207" transform="translate(140,225)"/>
<path d="M0 0 C0 3.63 0 7.26 0 11 C-2.97 11 -5.94 11 -9 11 C-9 7.7 -9 4.4 -9 1 C-1.125 0 -1.125 0 0 0 Z " fill="#FE002A" transform="translate(89,44)"/>
<path d="M0 0 C2.97 0 5.94 0 9 0 C9 3.3 9 6.6 9 10 C6.03 10 3.06 10 0 10 C0 6.7 0 3.4 0 0 Z " fill="#050001" transform="translate(200,65)"/>
<path d="M0 0 C2.21747156 3.55847215 2.23889479 6.48538345 2.1875 10.625 C2.18105469 11.77226562 2.17460937 12.91953125 2.16796875 14.1015625 C2 17 2 17 1 19 C0.01 18.67 -0.98 18.34 -2 18 C-2.20852314 11.59370576 -2.1583195 6.07027358 0 0 Z " fill="#49577B" transform="translate(273,126)"/>
</svg>
