<?xml version="1.0" encoding="UTF-8"?>
<svg version="1.1" xmlns="http://www.w3.org/2000/svg" width="349" height="436">
<path d="M0 0 C1.07848709 -0.0033284 2.15697418 -0.0066568 3.2681427 -0.01008606 C5.53626076 -0.01511601 7.80438613 -0.01749561 10.07250977 -0.01733398 C13.49312909 -0.01951442 16.91342214 -0.03769628 20.33398438 -0.05664062 C35.33559764 -0.09509756 49.71099584 0.5127099 64.33203125 4.16796875 C64.33203125 4.82796875 64.33203125 5.48796875 64.33203125 6.16796875 C66.31203125 6.16796875 68.29203125 6.16796875 70.33203125 6.16796875 C70.33203125 6.82796875 70.33203125 7.48796875 70.33203125 8.16796875 C71.03328125 8.10609375 71.73453125 8.04421875 72.45703125 7.98046875 C76.0203042 8.21285612 78.1749487 9.52628583 81.33203125 11.16796875 C82.44578125 11.47734375 83.55953125 11.78671875 84.70703125 12.10546875 C88.88491313 13.33002034 92.50690366 15.12127711 96.33203125 17.16796875 C96.33203125 17.82796875 96.33203125 18.48796875 96.33203125 19.16796875 C99.30203125 20.15796875 102.27203125 21.14796875 105.33203125 22.16796875 C105.33203125 22.82796875 105.33203125 23.48796875 105.33203125 24.16796875 C105.95078125 24.31234375 106.56953125 24.45671875 107.20703125 24.60546875 C109.33203125 25.16796875 109.33203125 25.16796875 111.33203125 26.16796875 C111.33203125 26.82796875 111.33203125 27.48796875 111.33203125 28.16796875 C112.32203125 28.16796875 113.31203125 28.16796875 114.33203125 28.16796875 C114.33203125 28.82796875 114.33203125 29.48796875 114.33203125 30.16796875 C115.65203125 30.49796875 116.97203125 30.82796875 118.33203125 31.16796875 C118.33203125 31.82796875 118.33203125 32.48796875 118.33203125 33.16796875 C119.32203125 33.16796875 120.31203125 33.16796875 121.33203125 33.16796875 C121.33203125 33.82796875 121.33203125 34.48796875 121.33203125 35.16796875 C121.99203125 35.16796875 122.65203125 35.16796875 123.33203125 35.16796875 C123.33203125 35.82796875 123.33203125 36.48796875 123.33203125 37.16796875 C124.65203125 37.49796875 125.97203125 37.82796875 127.33203125 38.16796875 C127.33203125 38.82796875 127.33203125 39.48796875 127.33203125 40.16796875 C127.93015625 40.45671875 128.52828125 40.74546875 129.14453125 41.04296875 C131.33203125 42.16796875 131.33203125 42.16796875 134.33203125 44.16796875 C134.33203125 44.82796875 134.33203125 45.48796875 134.33203125 46.16796875 C134.99203125 46.16796875 135.65203125 46.16796875 136.33203125 46.16796875 C136.33203125 46.82796875 136.33203125 47.48796875 136.33203125 48.16796875 C136.99203125 48.16796875 137.65203125 48.16796875 138.33203125 48.16796875 C139.95703125 49.54296875 139.95703125 49.54296875 141.33203125 51.16796875 C141.33203125 51.82796875 141.33203125 52.48796875 141.33203125 53.16796875 C141.99203125 53.16796875 142.65203125 53.16796875 143.33203125 53.16796875 C143.33203125 53.82796875 143.33203125 54.48796875 143.33203125 55.16796875 C143.99203125 55.16796875 144.65203125 55.16796875 145.33203125 55.16796875 C145.33203125 56.15796875 145.33203125 57.14796875 145.33203125 58.16796875 C145.99203125 58.16796875 146.65203125 58.16796875 147.33203125 58.16796875 C150.33203125 61.62950721 150.33203125 61.62950721 150.33203125 64.16796875 C150.99203125 64.16796875 151.65203125 64.16796875 152.33203125 64.16796875 C152.33203125 64.82796875 152.33203125 65.48796875 152.33203125 66.16796875 C152.99203125 66.16796875 153.65203125 66.16796875 154.33203125 66.16796875 C154.33203125 67.15796875 154.33203125 68.14796875 154.33203125 69.16796875 C154.99203125 69.16796875 155.65203125 69.16796875 156.33203125 69.16796875 C158.3737261 72.07345757 159.33203125 73.56938921 159.33203125 77.16796875 C159.99203125 77.16796875 160.65203125 77.16796875 161.33203125 77.16796875 C161.33203125 78.15796875 161.33203125 79.14796875 161.33203125 80.16796875 C161.99203125 80.16796875 162.65203125 80.16796875 163.33203125 80.16796875 C163.33203125 81.15796875 163.33203125 82.14796875 163.33203125 83.16796875 C163.99203125 83.16796875 164.65203125 83.16796875 165.33203125 83.16796875 C168.33203125 89.79296875 168.33203125 89.79296875 168.33203125 93.16796875 C168.99203125 93.16796875 169.65203125 93.16796875 170.33203125 93.16796875 C170.33203125 94.48796875 170.33203125 95.80796875 170.33203125 97.16796875 C170.99203125 97.16796875 171.65203125 97.16796875 172.33203125 97.16796875 C172.33203125 98.48796875 172.33203125 99.80796875 172.33203125 101.16796875 C172.99203125 101.16796875 173.65203125 101.16796875 174.33203125 101.16796875 C174.84081425 102.72763093 175.33866594 104.29086116 175.83203125 105.85546875 C176.2496875 107.16064453 176.2496875 107.16064453 176.67578125 108.4921875 C177.3305393 111.16188552 177.4503462 113.43193559 177.33203125 116.16796875 C177.99203125 116.16796875 178.65203125 116.16796875 179.33203125 116.16796875 C179.33203125 118.14796875 179.33203125 120.12796875 179.33203125 122.16796875 C179.99203125 122.16796875 180.65203125 122.16796875 181.33203125 122.16796875 C181.33203125 127.11796875 181.33203125 132.06796875 181.33203125 137.16796875 C180.67203125 137.16796875 180.01203125 137.16796875 179.33203125 137.16796875 C179.42484375 138.21984375 179.42484375 138.21984375 179.51953125 139.29296875 C179.28947024 142.82057087 178.04002557 145.10781226 176.33203125 148.16796875 C175.67203125 148.16796875 175.01203125 148.16796875 174.33203125 148.16796875 C174.33203125 149.15796875 174.33203125 150.14796875 174.33203125 151.16796875 C173.67203125 151.16796875 173.01203125 151.16796875 172.33203125 151.16796875 C172.33203125 152.15796875 172.33203125 153.14796875 172.33203125 154.16796875 C171.67203125 154.16796875 171.01203125 154.16796875 170.33203125 154.16796875 C170.33203125 154.82796875 170.33203125 155.48796875 170.33203125 156.16796875 C167.95703125 158.79296875 167.95703125 158.79296875 165.33203125 161.16796875 C164.67203125 161.16796875 164.01203125 161.16796875 163.33203125 161.16796875 C163.33203125 161.82796875 163.33203125 162.48796875 163.33203125 163.16796875 C162.67203125 163.16796875 162.01203125 163.16796875 161.33203125 163.16796875 C161.33203125 163.82796875 161.33203125 164.48796875 161.33203125 165.16796875 C160.34203125 165.16796875 159.35203125 165.16796875 158.33203125 165.16796875 C158.33203125 165.82796875 158.33203125 166.48796875 158.33203125 167.16796875 C157.01203125 167.49796875 155.69203125 167.82796875 154.33203125 168.16796875 C154.33203125 168.82796875 154.33203125 169.48796875 154.33203125 170.16796875 C152.35203125 170.82796875 150.37203125 171.48796875 148.33203125 172.16796875 C148.33203125 172.82796875 148.33203125 173.48796875 148.33203125 174.16796875 C147.34203125 174.16796875 146.35203125 174.16796875 145.33203125 174.16796875 C145.33203125 174.82796875 145.33203125 175.48796875 145.33203125 176.16796875 C139.70703125 179.16796875 139.70703125 179.16796875 136.33203125 179.16796875 C136.33203125 179.82796875 136.33203125 180.48796875 136.33203125 181.16796875 C135.34203125 181.16796875 134.35203125 181.16796875 133.33203125 181.16796875 C133.33203125 181.82796875 133.33203125 182.48796875 133.33203125 183.16796875 C132.01203125 183.16796875 130.69203125 183.16796875 129.33203125 183.16796875 C129.33203125 183.82796875 129.33203125 184.48796875 129.33203125 185.16796875 C128.06363599 185.67412173 126.79220023 186.17265974 125.51953125 186.66796875 C124.45798828 187.085625 124.45798828 187.085625 123.375 187.51171875 C121.33203125 188.16796875 121.33203125 188.16796875 118.33203125 188.16796875 C118.33203125 188.82796875 118.33203125 189.48796875 118.33203125 190.16796875 C117.01203125 190.16796875 115.69203125 190.16796875 114.33203125 190.16796875 C114.33203125 190.82796875 114.33203125 191.48796875 114.33203125 192.16796875 C113.33236328 192.51408203 113.33236328 192.51408203 112.3125 192.8671875 C106.29905861 194.99502061 100.55676675 197.38198041 94.83984375 200.21484375 C92.15466224 201.23538002 90.17886221 201.35163526 87.33203125 201.16796875 C87.33203125 201.82796875 87.33203125 202.48796875 87.33203125 203.16796875 C82.01430975 204.40997627 76.75001797 205.47631087 71.33203125 206.16796875 C71.33203125 206.82796875 71.33203125 207.48796875 71.33203125 208.16796875 C67.15465651 209.7593496 63.8004234 210.38074933 59.33203125 210.16796875 C59.33203125 210.82796875 59.33203125 211.48796875 59.33203125 212.16796875 C58.76170166 212.28390381 58.19137207 212.39983887 57.60375977 212.51928711 C55.03319949 213.0441 52.46386907 213.5747049 49.89453125 214.10546875 C48.5477832 214.37907227 48.5477832 214.37907227 47.17382812 214.65820312 C45.89282227 214.92407227 45.89282227 214.92407227 44.5859375 215.1953125 C43.79517822 215.35765381 43.00441895 215.51999512 42.18969727 215.68725586 C40.32998457 216.00087768 40.32998457 216.00087768 39.33203125 217.16796875 C36.99905692 217.20889812 34.664979 217.21038598 32.33203125 217.16796875 C32.33203125 217.82796875 32.33203125 218.48796875 32.33203125 219.16796875 C29.69203125 219.16796875 27.05203125 219.16796875 24.33203125 219.16796875 C24.00203125 220.81796875 23.67203125 222.46796875 23.33203125 224.16796875 C26.63203125 224.16796875 29.93203125 224.16796875 33.33203125 224.16796875 C33.33203125 224.82796875 33.33203125 225.48796875 33.33203125 226.16796875 C34.70875 226.24144531 34.70875 226.24144531 36.11328125 226.31640625 C42.76067211 226.72139435 48.94590984 227.25213233 55.33203125 229.16796875 C55.33203125 229.82796875 55.33203125 230.48796875 55.33203125 231.16796875 C57.64203125 231.16796875 59.95203125 231.16796875 62.33203125 231.16796875 C62.33203125 231.82796875 62.33203125 232.48796875 62.33203125 233.16796875 C63.11578125 233.08546875 63.89953125 233.00296875 64.70703125 232.91796875 C68.96096607 233.21134357 72.03138831 234.54945372 75.91796875 236.2109375 C78.69532556 237.31199319 81.36435252 237.85558151 84.33203125 238.16796875 C84.33203125 238.82796875 84.33203125 239.48796875 84.33203125 240.16796875 C85.98203125 240.16796875 87.63203125 240.16796875 89.33203125 240.16796875 C89.33203125 240.82796875 89.33203125 241.48796875 89.33203125 242.16796875 C90.98203125 242.16796875 92.63203125 242.16796875 94.33203125 242.16796875 C94.33203125 242.82796875 94.33203125 243.48796875 94.33203125 244.16796875 C95.17765625 244.29171875 96.02328125 244.41546875 96.89453125 244.54296875 C100.48439923 245.19567202 103.84028 246.12044338 107.33203125 247.16796875 C107.33203125 247.82796875 107.33203125 248.48796875 107.33203125 249.16796875 C108.65203125 249.16796875 109.97203125 249.16796875 111.33203125 249.16796875 C111.33203125 249.82796875 111.33203125 250.48796875 111.33203125 251.16796875 C112.98203125 251.16796875 114.63203125 251.16796875 116.33203125 251.16796875 C116.33203125 251.82796875 116.33203125 252.48796875 116.33203125 253.16796875 C116.88375 253.29042969 117.43546875 253.41289062 118.00390625 253.5390625 C120.6279438 254.24790486 123.06572655 255.20408131 125.58203125 256.23046875 C126.4740625 256.59269531 127.36609375 256.95492188 128.28515625 257.328125 C128.960625 257.60527344 129.63609375 257.88242187 130.33203125 258.16796875 C130.33203125 258.82796875 130.33203125 259.48796875 130.33203125 260.16796875 C131.65203125 260.16796875 132.97203125 260.16796875 134.33203125 260.16796875 C134.33203125 260.82796875 134.33203125 261.48796875 134.33203125 262.16796875 C135.03328125 262.43609375 135.73453125 262.70421875 136.45703125 262.98046875 C139.49701365 264.23611365 142.40480865 265.67031998 145.33203125 267.16796875 C145.33203125 267.82796875 145.33203125 268.48796875 145.33203125 269.16796875 C145.91855469 269.28140625 146.50507813 269.39484375 147.109375 269.51171875 C149.50508112 270.21906256 150.92521537 271.15243259 152.89453125 272.66796875 C155.16103767 274.40444583 156.55675418 275.24287639 159.33203125 276.16796875 C159.33203125 276.82796875 159.33203125 277.48796875 159.33203125 278.16796875 C159.99203125 278.16796875 160.65203125 278.16796875 161.33203125 278.16796875 C161.33203125 278.82796875 161.33203125 279.48796875 161.33203125 280.16796875 C161.99203125 280.16796875 162.65203125 280.16796875 163.33203125 280.16796875 C163.33203125 280.82796875 163.33203125 281.48796875 163.33203125 282.16796875 C163.99203125 282.16796875 164.65203125 282.16796875 165.33203125 282.16796875 C165.33203125 282.82796875 165.33203125 283.48796875 165.33203125 284.16796875 C166.32203125 284.49796875 167.31203125 284.82796875 168.33203125 285.16796875 C168.33203125 285.82796875 168.33203125 286.48796875 168.33203125 287.16796875 C168.99203125 287.16796875 169.65203125 287.16796875 170.33203125 287.16796875 C170.33203125 287.82796875 170.33203125 288.48796875 170.33203125 289.16796875 C170.99203125 289.16796875 171.65203125 289.16796875 172.33203125 289.16796875 C172.33203125 289.82796875 172.33203125 290.48796875 172.33203125 291.16796875 C172.99203125 291.16796875 173.65203125 291.16796875 174.33203125 291.16796875 C176.3737261 294.07345757 177.33203125 295.56938921 177.33203125 299.16796875 C177.99203125 299.16796875 178.65203125 299.16796875 179.33203125 299.16796875 C179.33203125 300.81796875 179.33203125 302.46796875 179.33203125 304.16796875 C179.99203125 304.16796875 180.65203125 304.16796875 181.33203125 304.16796875 C181.33203125 309.77796875 181.33203125 315.38796875 181.33203125 321.16796875 C180.67203125 321.16796875 180.01203125 321.16796875 179.33203125 321.16796875 C179.20957031 321.87308594 179.08710938 322.57820313 178.9609375 323.3046875 C178.29797924 326.32300058 177.3502755 329.08686317 176.26953125 331.98046875 C175.90730469 332.95628906 175.54507812 333.93210937 175.171875 334.9375 C174.75615234 336.04158203 174.75615234 336.04158203 174.33203125 337.16796875 C173.67203125 337.16796875 173.01203125 337.16796875 172.33203125 337.16796875 C172.33203125 338.48796875 172.33203125 339.80796875 172.33203125 341.16796875 C171.67203125 341.16796875 171.01203125 341.16796875 170.33203125 341.16796875 C170.20957031 341.7403125 170.08710938 342.31265625 169.9609375 342.90234375 C169.30440257 345.26750066 168.39479613 347.24003672 167.26953125 349.41796875 C166.90730469 350.124375 166.54507812 350.83078125 166.171875 351.55859375 C165.89472656 352.0896875 165.61757813 352.62078125 165.33203125 353.16796875 C164.67203125 353.16796875 164.01203125 353.16796875 163.33203125 353.16796875 C163.33203125 354.15796875 163.33203125 355.14796875 163.33203125 356.16796875 C162.67203125 356.16796875 162.01203125 356.16796875 161.33203125 356.16796875 C161.33203125 357.15796875 161.33203125 358.14796875 161.33203125 359.16796875 C160.67203125 359.16796875 160.01203125 359.16796875 159.33203125 359.16796875 C159.02265625 359.95171875 158.71328125 360.73546875 158.39453125 361.54296875 C157.33203125 364.16796875 157.33203125 364.16796875 156.33203125 366.16796875 C155.67203125 366.16796875 155.01203125 366.16796875 154.33203125 366.16796875 C154.33203125 366.82796875 154.33203125 367.48796875 154.33203125 368.16796875 C153.67203125 368.16796875 153.01203125 368.16796875 152.33203125 368.16796875 C152.06390625 368.91046875 151.79578125 369.65296875 151.51953125 370.41796875 C150.37926374 373.05858824 149.23822819 375.02349719 147.33203125 377.16796875 C146.67203125 377.16796875 146.01203125 377.16796875 145.33203125 377.16796875 C145.33203125 377.82796875 145.33203125 378.48796875 145.33203125 379.16796875 C144.67203125 379.16796875 144.01203125 379.16796875 143.33203125 379.16796875 C143.33203125 379.82796875 143.33203125 380.48796875 143.33203125 381.16796875 C141.95703125 382.79296875 141.95703125 382.79296875 140.33203125 384.16796875 C139.67203125 384.16796875 139.01203125 384.16796875 138.33203125 384.16796875 C138.33203125 384.82796875 138.33203125 385.48796875 138.33203125 386.16796875 C137.67203125 386.16796875 137.01203125 386.16796875 136.33203125 386.16796875 C136.33203125 386.82796875 136.33203125 387.48796875 136.33203125 388.16796875 C135.67203125 388.16796875 135.01203125 388.16796875 134.33203125 388.16796875 C134.33203125 388.82796875 134.33203125 389.48796875 134.33203125 390.16796875 C132.87109375 391.45703125 132.87109375 391.45703125 130.95703125 392.79296875 C130.33054687 393.23898437 129.7040625 393.685 129.05859375 394.14453125 C127.33203125 395.16796875 127.33203125 395.16796875 125.33203125 395.16796875 C125.33203125 395.82796875 125.33203125 396.48796875 125.33203125 397.16796875 C124.67203125 397.16796875 124.01203125 397.16796875 123.33203125 397.16796875 C123.33203125 397.82796875 123.33203125 398.48796875 123.33203125 399.16796875 C118.94741587 402.16796875 118.94741587 402.16796875 116.33203125 402.16796875 C116.33203125 402.82796875 116.33203125 403.48796875 116.33203125 404.16796875 C115.34203125 404.16796875 114.35203125 404.16796875 113.33203125 404.16796875 C113.33203125 404.82796875 113.33203125 405.48796875 113.33203125 406.16796875 C112.67203125 406.16796875 112.01203125 406.16796875 111.33203125 406.16796875 C111.33203125 406.82796875 111.33203125 407.48796875 111.33203125 408.16796875 C110.01203125 408.16796875 108.69203125 408.16796875 107.33203125 408.16796875 C107.33203125 408.82796875 107.33203125 409.48796875 107.33203125 410.16796875 C105.68203125 410.49796875 104.03203125 410.82796875 102.33203125 411.16796875 C102.33203125 411.82796875 102.33203125 412.48796875 102.33203125 413.16796875 C101.01203125 413.16796875 99.69203125 413.16796875 98.33203125 413.16796875 C98.33203125 413.82796875 98.33203125 414.48796875 98.33203125 415.16796875 C95.68464209 416.62859725 94.43754791 417.16796875 91.33203125 417.16796875 C91.33203125 417.82796875 91.33203125 418.48796875 91.33203125 419.16796875 C82.90345982 422.59654018 82.90345982 422.59654018 78.33203125 422.16796875 C78.33203125 422.82796875 78.33203125 423.48796875 78.33203125 424.16796875 C76.68203125 424.16796875 75.03203125 424.16796875 73.33203125 424.16796875 C73.33203125 424.82796875 73.33203125 425.48796875 73.33203125 426.16796875 C71.68203125 426.16796875 70.03203125 426.16796875 68.33203125 426.16796875 C68.33203125 426.82796875 68.33203125 427.48796875 68.33203125 428.16796875 C60.85261757 430.11007308 54.07355661 431.56160563 46.33203125 431.16796875 C46.33203125 431.82796875 46.33203125 432.48796875 46.33203125 433.16796875 C41.38203125 433.16796875 36.43203125 433.16796875 31.33203125 433.16796875 C31.33203125 433.82796875 31.33203125 434.48796875 31.33203125 435.16796875 C20.77203125 435.16796875 10.21203125 435.16796875 -0.66796875 435.16796875 C-0.66796875 434.50796875 -0.66796875 433.84796875 -0.66796875 433.16796875 C-1.66699219 433.17957031 -2.66601562 433.19117188 -3.6953125 433.203125 C-5.63083984 433.21666016 -5.63083984 433.21666016 -7.60546875 433.23046875 C-8.89324219 433.24207031 -10.18101562 433.25367188 -11.5078125 433.265625 C-14.66796875 433.16796875 -14.66796875 433.16796875 -15.66796875 432.16796875 C-17.84942396 431.81573921 -20.03872929 431.51169937 -22.23046875 431.23046875 C-27.50906464 430.51335613 -32.54227245 429.60316371 -37.66796875 428.16796875 C-37.66796875 427.83796875 -37.66796875 427.50796875 -37.66796875 427.16796875 C-39.64796875 426.83796875 -41.62796875 426.50796875 -43.66796875 426.16796875 C-43.66796875 425.50796875 -43.66796875 424.84796875 -43.66796875 424.16796875 C-44.43109375 424.08546875 -45.19421875 424.00296875 -45.98046875 423.91796875 C-51.08288045 422.8801901 -55.81351815 421.02509843 -60.66796875 419.16796875 C-60.66796875 418.50796875 -60.66796875 417.84796875 -60.66796875 417.16796875 C-61.98796875 417.16796875 -63.30796875 417.16796875 -64.66796875 417.16796875 C-64.66796875 416.50796875 -64.66796875 415.84796875 -64.66796875 415.16796875 C-65.1990625 415.06613281 -65.73015625 414.96429688 -66.27734375 414.859375 C-69.37014715 413.96488774 -72.05248443 412.56935748 -74.91796875 411.10546875 C-75.995625 410.55761719 -77.07328125 410.00976562 -78.18359375 409.4453125 C-79.41335937 408.81302734 -79.41335937 408.81302734 -80.66796875 408.16796875 C-80.66796875 407.50796875 -80.66796875 406.84796875 -80.66796875 406.16796875 C-81.65796875 406.16796875 -82.64796875 406.16796875 -83.66796875 406.16796875 C-83.66796875 405.50796875 -83.66796875 404.84796875 -83.66796875 404.16796875 C-84.36921875 403.89984375 -85.07046875 403.63171875 -85.79296875 403.35546875 C-88.83295115 402.09982385 -91.74074615 400.66561752 -94.66796875 399.16796875 C-94.66796875 398.50796875 -94.66796875 397.84796875 -94.66796875 397.16796875 C-95.32796875 397.16796875 -95.98796875 397.16796875 -96.66796875 397.16796875 C-97.10109375 396.56984375 -97.53421875 395.97171875 -97.98046875 395.35546875 C-99.93928544 392.81626192 -101.9162594 391.77872544 -104.66796875 390.16796875 C-106.98046875 388.10546875 -106.98046875 388.10546875 -108.66796875 386.16796875 C-108.66796875 385.50796875 -108.66796875 384.84796875 -108.66796875 384.16796875 C-109.22484375 383.94109375 -109.78171875 383.71421875 -110.35546875 383.48046875 C-113.32956463 381.79246839 -115.3880574 379.70120358 -117.66796875 377.16796875 C-117.66796875 376.50796875 -117.66796875 375.84796875 -117.66796875 375.16796875 C-118.32796875 375.16796875 -118.98796875 375.16796875 -119.66796875 375.16796875 C-119.66796875 374.50796875 -119.66796875 373.84796875 -119.66796875 373.16796875 C-120.32796875 373.16796875 -120.98796875 373.16796875 -121.66796875 373.16796875 C-121.66796875 372.50796875 -121.66796875 371.84796875 -121.66796875 371.16796875 C-122.32796875 371.16796875 -122.98796875 371.16796875 -123.66796875 371.16796875 C-123.66796875 370.17796875 -123.66796875 369.18796875 -123.66796875 368.16796875 C-124.65796875 367.83796875 -125.64796875 367.50796875 -126.66796875 367.16796875 C-127.9140625 365.71484375 -127.9140625 365.71484375 -129.10546875 363.91796875 C-130.65674611 361.6239586 -132.18962839 359.54761674 -133.98046875 357.41796875 C-135.66796875 355.16796875 -135.66796875 355.16796875 -135.66796875 352.16796875 C-136.32796875 352.16796875 -136.98796875 352.16796875 -137.66796875 352.16796875 C-137.66796875 351.50796875 -137.66796875 350.84796875 -137.66796875 350.16796875 C-138.32796875 350.16796875 -138.98796875 350.16796875 -139.66796875 350.16796875 C-139.66796875 348.84796875 -139.66796875 347.52796875 -139.66796875 346.16796875 C-140.32796875 346.16796875 -140.98796875 346.16796875 -141.66796875 346.16796875 C-144.66796875 340.54296875 -144.66796875 340.54296875 -144.66796875 337.16796875 C-145.32796875 337.16796875 -145.98796875 337.16796875 -146.66796875 337.16796875 C-146.66796875 336.17796875 -146.66796875 335.18796875 -146.66796875 334.16796875 C-147.32796875 334.16796875 -147.98796875 334.16796875 -148.66796875 334.16796875 C-148.66796875 332.84796875 -148.66796875 331.52796875 -148.66796875 330.16796875 C-149.32796875 330.16796875 -149.98796875 330.16796875 -150.66796875 330.16796875 C-151.31760898 328.27343654 -151.9625199 326.37728226 -152.60546875 324.48046875 C-152.96511719 323.42472656 -153.32476562 322.36898438 -153.6953125 321.28125 C-154.54003393 318.57746292 -155.1769066 315.95410033 -155.66796875 313.16796875 C-156.32796875 313.16796875 -156.98796875 313.16796875 -157.66796875 313.16796875 C-157.66796875 311.18796875 -157.66796875 309.20796875 -157.66796875 307.16796875 C-158.32796875 307.16796875 -158.98796875 307.16796875 -159.66796875 307.16796875 C-161.61007308 299.68855507 -163.06160563 292.90949411 -162.66796875 285.16796875 C-163.32796875 285.16796875 -163.98796875 285.16796875 -164.66796875 285.16796875 C-164.66796875 280.54796875 -164.66796875 275.92796875 -164.66796875 271.16796875 C-165.32796875 271.16796875 -165.98796875 271.16796875 -166.66796875 271.16796875 C-166.66796875 261.92796875 -166.66796875 252.68796875 -166.66796875 243.16796875 C-166.00796875 243.16796875 -165.34796875 243.16796875 -164.66796875 243.16796875 C-164.72984375 242.44609375 -164.79171875 241.72421875 -164.85546875 240.98046875 C-164.63050254 237.6059756 -163.66927112 235.86202964 -161.66796875 233.16796875 C-161.00796875 233.16796875 -160.34796875 233.16796875 -159.66796875 233.16796875 C-159.66796875 232.50796875 -159.66796875 231.84796875 -159.66796875 231.16796875 C-159.00796875 231.16796875 -158.34796875 231.16796875 -157.66796875 231.16796875 C-157.66796875 230.50796875 -157.66796875 229.84796875 -157.66796875 229.16796875 C-156.34796875 228.83796875 -155.02796875 228.50796875 -153.66796875 228.16796875 C-153.66796875 227.50796875 -153.66796875 226.84796875 -153.66796875 226.16796875 C-152.67796875 226.16796875 -151.68796875 226.16796875 -150.66796875 226.16796875 C-150.66796875 225.50796875 -150.66796875 224.84796875 -150.66796875 224.16796875 C-150.00796875 224.16796875 -149.34796875 224.16796875 -148.66796875 224.16796875 C-148.66796875 223.50796875 -148.66796875 222.84796875 -148.66796875 222.16796875 C-149.26609375 222.08546875 -149.86421875 222.00296875 -150.48046875 221.91796875 C-153.29729148 220.95220096 -154.14596007 219.67928308 -155.66796875 217.16796875 C-155.66796875 216.50796875 -155.66796875 215.84796875 -155.66796875 215.16796875 C-156.32796875 215.16796875 -156.98796875 215.16796875 -157.66796875 215.16796875 C-157.66796875 214.50796875 -157.66796875 213.84796875 -157.66796875 213.16796875 C-158.32796875 213.16796875 -158.98796875 213.16796875 -159.66796875 213.16796875 C-161.70842704 207.73957971 -163.03447751 202.71299154 -163.45703125 196.91796875 C-163.48844284 195.14169258 -163.48844284 195.14169258 -164.66796875 194.16796875 C-164.76619619 192.69991583 -164.79595245 191.22719415 -164.79736328 189.75585938 C-164.80051544 188.81818726 -164.8036676 187.88051514 -164.80691528 186.91442871 C-164.80489105 185.89465942 -164.80286682 184.87489014 -164.80078125 183.82421875 C-164.80173798 182.78479126 -164.8026947 181.74536377 -164.80368042 180.67443848 C-164.80436238 178.47192321 -164.80250702 176.26940596 -164.79833984 174.06689453 C-164.79299183 170.68257156 -164.79828434 167.29838131 -164.8046875 163.9140625 C-164.80402672 161.77994762 -164.80274556 159.64583283 -164.80078125 157.51171875 C-164.80280548 156.49194946 -164.80482971 155.47218018 -164.80691528 154.42150879 C-164.80376312 153.48383667 -164.80061096 152.54616455 -164.79736328 151.58007812 C-164.79656769 150.75036499 -164.79577209 149.92065186 -164.79495239 149.0657959 C-164.66796875 147.16796875 -164.66796875 147.16796875 -163.66796875 146.16796875 C-163.31554247 143.81944737 -163.01158456 141.46358894 -162.73046875 139.10546875 C-162.05590003 133.6670003 -161.17446095 128.44069143 -159.66796875 123.16796875 C-159.00796875 123.16796875 -158.34796875 123.16796875 -157.66796875 123.16796875 C-157.70921875 122.26046875 -157.75046875 121.35296875 -157.79296875 120.41796875 C-157.67265319 117.28976415 -157.27649795 115.78182869 -155.66796875 113.16796875 C-155.00796875 113.16796875 -154.34796875 113.16796875 -153.66796875 113.16796875 C-153.54421875 111.95109375 -153.42046875 110.73421875 -153.29296875 109.48046875 C-152.87905569 106.10317816 -152.12223424 103.2704018 -150.66796875 100.16796875 C-150.00796875 100.16796875 -149.34796875 100.16796875 -148.66796875 100.16796875 C-148.66796875 99.17796875 -148.66796875 98.18796875 -148.66796875 97.16796875 C-148.00796875 97.16796875 -147.34796875 97.16796875 -146.66796875 97.16796875 C-146.66796875 95.84796875 -146.66796875 94.52796875 -146.66796875 93.16796875 C-146.00796875 93.16796875 -145.34796875 93.16796875 -144.66796875 93.16796875 C-144.48234375 92.05421875 -144.48234375 92.05421875 -144.29296875 90.91796875 C-143.71310174 88.3665539 -142.93088136 86.44121145 -141.66796875 84.16796875 C-141.00796875 84.16796875 -140.34796875 84.16796875 -139.66796875 84.16796875 C-139.66796875 83.17796875 -139.66796875 82.18796875 -139.66796875 81.16796875 C-139.00796875 81.16796875 -138.34796875 81.16796875 -137.66796875 81.16796875 C-137.66796875 80.17796875 -137.66796875 79.18796875 -137.66796875 78.16796875 C-137.00796875 78.16796875 -136.34796875 78.16796875 -135.66796875 78.16796875 C-135.35859375 77.38421875 -135.04921875 76.60046875 -134.73046875 75.79296875 C-133.66796875 73.16796875 -133.66796875 73.16796875 -132.66796875 71.16796875 C-132.00796875 71.16796875 -131.34796875 71.16796875 -130.66796875 71.16796875 C-130.66796875 70.17796875 -130.66796875 69.18796875 -130.66796875 68.16796875 C-130.00796875 68.16796875 -129.34796875 68.16796875 -128.66796875 68.16796875 C-128.66796875 67.50796875 -128.66796875 66.84796875 -128.66796875 66.16796875 C-128.00796875 66.16796875 -127.34796875 66.16796875 -126.66796875 66.16796875 C-126.35859375 65.54921875 -126.04921875 64.93046875 -125.73046875 64.29296875 C-125.04296875 62.91796875 -124.35546875 61.54296875 -123.66796875 60.16796875 C-123.00796875 60.16796875 -122.34796875 60.16796875 -121.66796875 60.16796875 C-121.66796875 59.50796875 -121.66796875 58.84796875 -121.66796875 58.16796875 C-121.00796875 58.16796875 -120.34796875 58.16796875 -119.66796875 58.16796875 C-119.66796875 57.17796875 -119.66796875 56.18796875 -119.66796875 55.16796875 C-119.00796875 55.16796875 -118.34796875 55.16796875 -117.66796875 55.16796875 C-117.66796875 54.50796875 -117.66796875 53.84796875 -117.66796875 53.16796875 C-116.29296875 51.54296875 -116.29296875 51.54296875 -114.66796875 50.16796875 C-114.00796875 50.16796875 -113.34796875 50.16796875 -112.66796875 50.16796875 C-112.66796875 49.50796875 -112.66796875 48.84796875 -112.66796875 48.16796875 C-112.00796875 48.16796875 -111.34796875 48.16796875 -110.66796875 48.16796875 C-110.66796875 47.50796875 -110.66796875 46.84796875 -110.66796875 46.16796875 C-109.67796875 46.16796875 -108.68796875 46.16796875 -107.66796875 46.16796875 C-107.66796875 45.50796875 -107.66796875 44.84796875 -107.66796875 44.16796875 C-107.00796875 44.16796875 -106.34796875 44.16796875 -105.66796875 44.16796875 C-105.66796875 43.50796875 -105.66796875 42.84796875 -105.66796875 42.16796875 C-105.00796875 42.16796875 -104.34796875 42.16796875 -103.66796875 42.16796875 C-103.66796875 41.50796875 -103.66796875 40.84796875 -103.66796875 40.16796875 C-102.34796875 39.83796875 -101.02796875 39.50796875 -99.66796875 39.16796875 C-99.66796875 38.50796875 -99.66796875 37.84796875 -99.66796875 37.16796875 C-98.67796875 37.16796875 -97.68796875 37.16796875 -96.66796875 37.16796875 C-96.66796875 36.50796875 -96.66796875 35.84796875 -96.66796875 35.16796875 C-96.00796875 35.16796875 -95.34796875 35.16796875 -94.66796875 35.16796875 C-94.66796875 34.50796875 -94.66796875 33.84796875 -94.66796875 33.16796875 C-90.28335337 30.16796875 -90.28335337 30.16796875 -87.66796875 30.16796875 C-87.66796875 29.50796875 -87.66796875 28.84796875 -87.66796875 28.16796875 C-85.68796875 27.50796875 -83.70796875 26.84796875 -81.66796875 26.16796875 C-81.66796875 25.50796875 -81.66796875 24.84796875 -81.66796875 24.16796875 C-78.69796875 23.17796875 -75.72796875 22.18796875 -72.66796875 21.16796875 C-72.66796875 20.50796875 -72.66796875 19.84796875 -72.66796875 19.16796875 C-71.42336092 18.49128877 -70.17199979 17.82702156 -68.91796875 17.16796875 C-67.87382812 16.61109375 -67.87382812 16.61109375 -66.80859375 16.04296875 C-64.66796875 15.16796875 -64.66796875 15.16796875 -60.66796875 15.16796875 C-60.66796875 14.50796875 -60.66796875 13.84796875 -60.66796875 13.16796875 C-52.23939732 9.73939732 -52.23939732 9.73939732 -47.66796875 10.16796875 C-47.66796875 9.50796875 -47.66796875 8.84796875 -47.66796875 8.16796875 C-46.01796875 8.16796875 -44.36796875 8.16796875 -42.66796875 8.16796875 C-42.66796875 7.50796875 -42.66796875 6.84796875 -42.66796875 6.16796875 C-40.68796875 6.16796875 -38.70796875 6.16796875 -36.66796875 6.16796875 C-36.66796875 5.50796875 -36.66796875 4.84796875 -36.66796875 4.16796875 C-34.56582015 3.68002477 -32.46109925 3.20316131 -30.35546875 2.73046875 C-28.59783203 2.33021484 -28.59783203 2.33021484 -26.8046875 1.921875 C-17.97392699 0.16126019 -8.97446326 0.00990188 0 0 Z " fill="#32395A" transform="translate(167.66796875,0.83203125)"/>
<path d="M0 0 C1.57394531 -0.00386719 1.57394531 -0.00386719 3.1796875 -0.0078125 C6.50598129 0.10416175 9.7753732 0.33586394 13.08984375 0.6171875 C17.94670205 1.00886962 22.76451423 1.20781497 27.63671875 1.265625 C48.16007897 1.51749919 67.90068551 3.65354825 88.125 7.125 C88.125 7.785 88.125 8.445 88.125 9.125 C88.83785156 9.18558594 89.55070313 9.24617187 90.28515625 9.30859375 C91.24292969 9.39238281 92.20070312 9.47617188 93.1875 9.5625 C94.12722656 9.64371094 95.06695312 9.72492188 96.03515625 9.80859375 C102.63103209 10.48402478 109.07806181 11.6505776 115.5625 13 C116.37009766 13.16113281 117.17769531 13.32226562 118.00976562 13.48828125 C121.95041506 14.30752988 125.68283205 15.2560692 129.44140625 16.70703125 C132.31991082 17.81508762 134.61812149 18.5167614 137.625 18.9375 C145.10543085 20.3112211 152.08081274 23.33777222 159.125 26.125 C160.05828125 26.48980469 160.9915625 26.85460937 161.953125 27.23046875 C164.3511201 28.17806359 166.73861643 29.14857464 169.125 30.125 C169.98480469 30.46789062 170.84460938 30.81078125 171.73046875 31.1640625 C228.06731185 54.0096237 228.06731185 54.0096237 238.125 74.125 C238.60734473 77.28703769 238.86368683 79.09911989 238.125 82.125 C231.10012507 91.63825024 218.07782965 94.15396277 207.125 96.125 C200.27824849 97.09027437 193.38924861 97.77172634 186.515625 98.515625 C180.63030029 99.22403136 180.63030029 99.22403136 175.625 102.125 C174.33071837 104.71356326 173.32230233 107.23222708 172.3125 109.9375 C169.71318083 116.72404927 165.66029368 121.95738588 159.3125 125.625 C153.50787061 128.19352022 147.13812162 127.82136229 141.125 126.125 C141.125 125.465 141.125 124.805 141.125 124.125 C140.5475 123.91875 139.97 123.7125 139.375 123.5 C136.28022364 121.60874778 134.9331237 119.22464063 133.125 116.125 C133.125 115.465 133.125 114.805 133.125 114.125 C132.465 114.125 131.805 114.125 131.125 114.125 C129.02545886 109.92591771 128.78353851 106.03849492 128.56640625 101.4296875 C128.0195766 98.57455923 127.51667453 97.77237748 125.125 96.125 C122.03120974 95.12932997 122.03120974 95.12932997 118.4375 94.5 C117.78338135 94.37302734 117.1292627 94.24605469 116.45532227 94.11523438 C110.21555849 92.98355971 104.01454367 92.6842639 97.68359375 92.53125 C93.84993436 92.09359843 91.48822088 90.95101466 88.125 89.125 C85.8365813 88.46698278 85.8365813 88.46698278 83.5625 88.125 C79.50372624 87.39650215 75.51028206 86.52441007 71.5 85.5625 C67.90862175 84.71523823 64.4230979 83.97380193 60.75 83.625 C57.4541248 83.17039652 55.23182745 82.30442243 52.265625 80.890625 C47.43848801 79.16413075 42.1900655 78.77241439 37.125 78.125 C37.125 77.465 37.125 76.805 37.125 76.125 C35.145 76.125 33.165 76.125 31.125 76.125 C31.125 75.465 31.125 74.805 31.125 74.125 C30.3 74.228125 29.475 74.33125 28.625 74.4375 C25.0671102 74.11983127 24.45543428 73.84094891 21.75 71.875 C15.6791672 67.6968386 8.2134745 66.66485065 1.125 65.125 C1.125 64.465 1.125 63.805 1.125 63.125 C0.42375 63.021875 -0.2775 62.91875 -1 62.8125 C-4.28590365 62.02674043 -6.85268341 60.63615829 -9.875 59.125 C-12.85091056 58.04684224 -15.85482728 57.07132079 -18.875 56.125 C-18.875 55.465 -18.875 54.805 -18.875 54.125 C-19.535 54.125 -20.195 54.125 -20.875 54.125 C-20.875 53.465 -20.875 52.805 -20.875 52.125 C-21.41382813 52.01800781 -21.95265625 51.91101563 -22.5078125 51.80078125 C-28.77610033 50.01131954 -35.03621656 46.53595922 -40.375 42.8125 C-42.64842239 41.27793989 -44.19392628 40.53747288 -46.875 40.125 C-46.875 39.465 -46.875 38.805 -46.875 38.125 C-47.47570312 38.01776611 -48.07640625 37.91053223 -48.6953125 37.80004883 C-51.17020612 37.03357472 -52.04805593 36.24100922 -53.75 34.32421875 C-54.51570313 33.47633789 -54.51570313 33.47633789 -55.296875 32.61132812 C-55.81765625 32.01771484 -56.3384375 31.42410156 -56.875 30.8125 C-57.91598137 29.64912602 -58.95763363 28.48635196 -60 27.32421875 C-60.73585327 26.49059814 -60.73585327 26.49059814 -61.48657227 25.64013672 C-62.9788716 23.9666104 -62.9788716 23.9666104 -65.21484375 21.98828125 C-67.74791843 19.14527743 -67.51128581 16.90887314 -67.30078125 13.24609375 C-66.875 11.125 -66.875 11.125 -65.125 8.6875 C-61.1744467 6.78819553 -57.53575639 6.23035738 -53.203125 5.71484375 C-50.44480821 5.22598714 -48.28970434 4.57452139 -45.6953125 3.60546875 C-40.32252866 1.74518182 -35.14514697 1.60481705 -29.5 1.5 C-27.55461422 1.44798434 -25.60929785 1.39330369 -23.6640625 1.3359375 C-22.70806152 1.30838379 -21.75206055 1.28083008 -20.76708984 1.25244141 C-16.9442832 1.08398749 -13.15184525 0.71388965 -9.34423828 0.34326172 C-6.22353549 0.06741554 -3.13225582 -0.00765833 0 0 Z " fill="#5A646F" transform="translate(88.875,234.875)"/>
<path d="M0 0 C14.97529396 -1.05707957 31.99825801 2.29281969 44.1875 11.375 C46.59340108 14.85940847 46.59383288 16.84316985 46 21 C40.75104849 32.6643367 28.79344148 39.69857828 18.30859375 46.0078125 C16.57197156 47.05347639 14.83798668 48.1047136 13.13549805 49.20507812 C8.24504247 52.35919486 3.25795763 54.9010974 -2.0625 57.25 C-2.92681641 57.63349609 -3.79113281 58.01699219 -4.68164062 58.41210938 C-35.35617431 71.87201571 -67.51983013 82.7909431 -100.57739258 88.56860352 C-103.67841387 89.12080594 -106.74408832 89.78982673 -109.8125 90.5 C-110.85019531 90.7371875 -111.88789063 90.974375 -112.95703125 91.21875 C-115.98568019 91.95600252 -115.98568019 91.95600252 -118.8269043 92.95556641 C-129.64421612 96.51611576 -140.74115136 97.87012054 -152 99.125 C-154.21533252 99.37780797 -156.43040133 99.6327239 -158.64526367 99.88961792 C-160.63285404 100.11927671 -162.6210974 100.34326361 -164.609375 100.56689453 C-167.86180255 100.93379577 -167.86180255 100.93379577 -170.4765625 101.53222656 C-173.84979519 102.15752782 -177.20490509 102.25359064 -180.625 102.3515625 C-181.36056122 102.37525909 -182.09612244 102.39895569 -182.85397339 102.42337036 C-185.23584699 102.49698878 -187.61781453 102.56231876 -190 102.625 C-190.81067932 102.64679321 -191.62135864 102.66858643 -192.456604 102.69104004 C-240.80331517 103.94282003 -240.80331517 103.94282003 -253 93 C-255.84052632 88.73921052 -255.5215071 85.00344496 -255 80 C-254.22085745 77.45089777 -253.24021525 75.37707923 -252 73 C-251.34 73 -250.68 73 -250 73 C-249.731875 72.401875 -249.46375 71.80375 -249.1875 71.1875 C-248.00082594 69.00152146 -246.90400887 67.58667406 -245 66 C-244.34 66 -243.68 66 -243 66 C-243 65.34 -243 64.68 -243 64 C-242.34 64 -241.68 64 -241 64 C-241 63.34 -241 62.68 -241 62 C-239.609375 60.78125 -239.609375 60.78125 -237.75 59.5 C-237.11320312 59.06042969 -236.47640625 58.62085938 -235.8203125 58.16796875 C-233.9410397 56.96216925 -231.9949064 55.9974532 -230 55 C-229.67 54.34 -229.34 53.68 -229 53 C-227.00934459 51.98152514 -225.00751815 50.98482022 -223 50 C-222.05125 49.34 -221.1025 48.68 -220.125 48 C-215.7262188 45.18478003 -211.2814242 43 -206 43 C-206 42.34 -206 41.68 -206 41 C-205.00419922 40.61908203 -205.00419922 40.61908203 -203.98828125 40.23046875 C-199.39787257 38.44121457 -195.19999071 36.59411191 -191 34 C-189.948125 33.7525 -189.948125 33.7525 -188.875 33.5 C-186.87706178 33.14683849 -186.87706178 33.14683849 -185.5625 31.4375 C-184 30 -184 30 -181.3125 29.8125 C-180.1678125 29.9053125 -180.1678125 29.9053125 -179 30 C-179 29.34 -179 28.68 -179 28 C-177.93072266 27.83564453 -177.93072266 27.83564453 -176.83984375 27.66796875 C-171.0914426 26.71634918 -166.28112902 25.42051747 -161 23 C-160.01 23 -159.02 23 -158 23 C-158 22.34 -158 21.68 -158 21 C-157.21496094 20.89042969 -156.42992187 20.78085938 -155.62109375 20.66796875 C-154.57050781 20.50941406 -153.51992187 20.35085937 -152.4375 20.1875 C-151.40496094 20.03667969 -150.37242187 19.88585937 -149.30859375 19.73046875 C-145.60736283 18.91331387 -142.47714569 17.5029285 -139 16 C-136.02722897 15.05741406 -133.02112714 14.27163388 -130 13.5 C-129.16984375 13.28496826 -128.3396875 13.06993652 -127.484375 12.84838867 C-120.0380246 10.95039733 -112.55713093 9.39652244 -105 8 C-104.07316406 7.81695312 -103.14632812 7.63390625 -102.19140625 7.4453125 C-96.65369305 6.3756205 -91.08562713 5.52510492 -85.5 4.75 C-84.45694702 4.59325806 -84.45694702 4.59325806 -83.39282227 4.43334961 C-79.54488433 3.92688021 -78.34577095 3.76948603 -75 6 C-73.85644908 8.253468 -72.97949718 10.55262391 -72.0625 12.90625 C-71.05366053 15.31881007 -71.05366053 15.31881007 -68 17 C-68 17.66 -68 18.32 -68 19 C-67.4225 19.2475 -66.845 19.495 -66.25 19.75 C-63.67060021 21.18299988 -61.93878408 22.78424676 -60 25 C-60 25.66 -60 26.32 -60 27 C-59.278125 27.103125 -58.55625 27.20625 -57.8125 27.3125 C-55 28 -55 28 -53.01171875 29.52734375 C-48.42713055 31.7690944 -44.02936286 31.35532697 -39 31.25 C-37.52273437 31.24226563 -37.52273437 31.24226563 -36.015625 31.234375 C-31.52767312 31.1858566 -27.39334271 30.98220341 -23 30 C-23 29.34 -23 28.68 -23 28 C-22.38511719 27.67386719 -21.77023437 27.34773438 -21.13671875 27.01171875 C-20.32847656 26.57472656 -19.52023437 26.13773438 -18.6875 25.6875 C-17.88699219 25.25824219 -17.08648437 24.82898438 -16.26171875 24.38671875 C-13.97769013 23.11688638 -13.97769013 23.11688638 -12.39453125 21.33203125 C-11 20 -11 20 -8 20 C-7.62875 18.9790625 -7.62875 18.9790625 -7.25 17.9375 C-6 15 -6 15 -4 11.6875 C-1.7766255 7.92103722 -0.89801703 4.2655809 0 0 Z " fill="#5A646F" transform="translate(281,113)"/>
<path d="M0 0 C12.34271804 -0.28866612 24.56881399 -0.35099042 36.81445312 1.38623047 C37.64855713 1.50385742 38.48266113 1.62148438 39.34204102 1.74267578 C44.29310248 2.54138234 48.40774179 3.99739926 53.00195312 6.07373047 C55.5850545 6.93789407 58.19985711 7.68610039 60.81445312 8.44873047 C67.26032221 10.40209137 73.10714856 12.78157438 79.00195312 16.07373047 C79.93910156 16.58291016 80.87625 17.09208984 81.84179688 17.61669922 C83.73607131 18.64647257 85.62690259 19.68261341 87.51367188 20.72607422 C89.49780518 21.80068331 91.52521326 22.79527474 93.56445312 23.76123047 C96.00195312 25.07373047 96.00195312 25.07373047 98.00195312 28.07373047 C99.71806416 29.07749353 101.43670724 30.07798428 103.18164062 31.03076172 C105.6933049 32.46984833 107.86267884 34.12893566 110.00195312 36.07373047 C110.00195312 36.73373047 110.00195312 37.39373047 110.00195312 38.07373047 C110.59234375 38.17169922 111.18273437 38.26966797 111.79101562 38.37060547 C114.44059716 39.21322857 115.49894594 40.29583539 117.37695312 42.32373047 C119.57138413 44.63117938 121.74272827 46.73878867 124.25195312 48.69873047 C126.93234597 51.0136152 128.30210929 53.01401156 130.00195312 56.07373047 C130.66195313 56.40373047 131.32195312 56.73373047 132.00195312 57.07373047 C132.00195312 57.73373047 132.00195312 58.39373047 132.00195312 59.07373047 C132.66195313 59.07373047 133.32195312 59.07373047 134.00195312 59.07373047 C135.07109548 60.69691019 136.05627519 62.37565184 137.00195312 64.07373047 C137.60394531 65.06630859 138.2059375 66.05888672 138.82617188 67.08154297 C139.44105469 68.11021484 140.0559375 69.13888672 140.68945312 70.19873047 C141.62337891 71.74947266 141.62337891 71.74947266 142.57617188 73.33154297 C144.00195312 76.07373047 144.00195312 76.07373047 144.00195312 79.07373047 C137.39647109 78.37274054 130.82635767 77.52096993 124.25195312 76.57373047 C123.33285156 76.44353516 122.41375 76.31333984 121.46679688 76.17919922 C120.57605469 76.05158203 119.6853125 75.92396484 118.76757812 75.79248047 C117.97125977 75.67839844 117.17494141 75.56431641 116.35449219 75.44677734 C113.88777346 75.05562477 111.4475964 74.57912726 109.00195312 74.07373047 C108.74800781 73.27708984 108.4940625 72.48044922 108.23242188 71.65966797 C105.4653869 62.12979931 105.4653869 62.12979931 100.00195312 54.07373047 C100.00195312 52.75373047 100.00195312 51.43373047 100.00195312 50.07373047 C98.35195313 49.74373047 96.70195312 49.41373047 95.00195312 49.07373047 C95.00195312 48.41373047 95.00195312 47.75373047 95.00195312 47.07373047 C94.34195313 47.07373047 93.68195313 47.07373047 93.00195312 47.07373047 C93.00195312 46.41373047 93.00195312 45.75373047 93.00195312 45.07373047 C92.23882812 44.78498047 91.47570312 44.49623047 90.68945312 44.19873047 C88.00195312 43.07373047 88.00195312 43.07373047 85.00195312 41.07373047 C75.59449537 37.43903088 65.8306261 37.33925877 56.00195312 39.07373047 C54.85726562 39.22841797 54.85726562 39.22841797 53.68945312 39.38623047 C51.80449828 39.92231353 51.80449828 39.92231353 51.20898438 41.95654297 C49.6030048 44.77350391 47.9396181 45.34246232 45.00195312 46.63623047 C40.82743859 48.47534012 40.82743859 48.47534012 38.00195312 52.07373047 C37.34195313 52.07373047 36.68195313 52.07373047 36.00195312 52.07373047 C36.00195312 53.06373047 36.00195312 54.05373047 36.00195312 55.07373047 C35.34195313 55.07373047 34.68195313 55.07373047 34.00195312 55.07373047 C34.00195312 56.06373047 34.00195312 57.05373047 34.00195312 58.07373047 C33.34195313 58.07373047 32.68195313 58.07373047 32.00195312 58.07373047 C31.81632812 59.96091797 31.81632812 59.96091797 31.62695312 61.88623047 C31.30327254 65.1769831 30.93590314 66.17280545 29.00195312 69.07373047 C28.54594052 71.58269733 28.54594052 71.58269733 28.37695312 74.26123047 C28.26480469 75.6128125 28.26480469 75.6128125 28.15039062 76.99169922 C28.07691406 78.02230469 28.07691406 78.02230469 28.00195312 79.07373047 C26.17903646 79.23649089 24.35611979 79.3992513 22.53320312 79.56201172 C19.77893972 80.03835508 19.77893972 80.03835508 16.47070312 81.49951172 C11.13540321 83.56849139 5.64322041 84.17260162 0.00195312 84.94873047 C-8.9004012 86.26216064 -17.17099419 88.06573853 -25.67382812 90.97998047 C-29.4116062 92.20980169 -33.09889019 92.93454331 -36.96679688 93.60498047 C-39.26180135 94.04544038 -39.26180135 94.04544038 -42.12304688 95.69873047 C-45.98515093 97.54582371 -48.75037011 97.29343789 -52.99804688 97.07373047 C-52.99804688 97.73373047 -52.99804688 98.39373047 -52.99804688 99.07373047 C-54.03703125 99.38826172 -55.07601562 99.70279297 -56.14648438 100.02685547 C-63.9158162 102.40206186 -71.49438326 104.94494654 -78.99804688 108.07373047 C-80.37031417 108.60172179 -81.74523696 109.12287658 -83.12304688 109.63623047 C-84.08017578 109.99394531 -84.08017578 109.99394531 -85.05664062 110.35888672 C-86.40017624 110.85358897 -87.74676966 111.34003597 -89.09570312 111.81982422 C-93.03032783 113.23923089 -96.42372975 114.86606401 -99.99804688 117.07373047 C-100.65804687 117.07373047 -101.31804687 117.07373047 -101.99804688 117.07373047 C-101.99804688 117.73373047 -101.99804688 118.39373047 -101.99804688 119.07373047 C-113.4243539 124.87388632 -113.4243539 124.87388632 -118.62304688 127.01123047 C-125.00722964 129.80143984 -130.38406643 134.12019721 -135.93554688 138.26904297 C-137.38960937 139.34798828 -137.38960937 139.34798828 -138.87304688 140.44873047 C-139.75734375 141.11646484 -140.64164063 141.78419922 -141.55273438 142.47216797 C-143.80075649 143.94451472 -145.3748997 144.64670651 -147.99804688 145.07373047 C-148.2176977 138.28896045 -147.40063018 131.88958662 -146.31054688 125.19873047 C-146.16166016 124.17392578 -146.01277344 123.14912109 -145.859375 122.09326172 C-144.84295291 115.81934654 -143.19349853 110.74602875 -140.08984375 105.18896484 C-138.72136352 102.5376874 -138.23191462 100.0360552 -137.99804688 97.07373047 C-137.33804688 97.07373047 -136.67804688 97.07373047 -135.99804688 97.07373047 C-135.85367188 96.47560547 -135.70929688 95.87748047 -135.56054688 95.26123047 C-135.11080298 93.51222642 -134.56912347 91.78696024 -133.99804688 90.07373047 C-133.33804688 90.07373047 -132.67804688 90.07373047 -131.99804688 90.07373047 C-131.83369141 89.02572266 -131.83369141 89.02572266 -131.66601562 87.95654297 C-131.50746094 87.04646484 -131.34890625 86.13638672 -131.18554688 85.19873047 C-131.03472656 84.29380859 -130.88390625 83.38888672 -130.72851562 82.45654297 C-129.99804688 80.07373047 -129.99804688 80.07373047 -126.99804688 78.07373047 C-126.32668731 76.46246752 -125.65933953 74.84935308 -125.01757812 73.22607422 C-122.94612851 68.85301392 -120.09553393 64.78325112 -116.99804688 61.07373047 C-116.33804688 61.07373047 -115.67804688 61.07373047 -114.99804688 61.07373047 C-114.72605469 60.48591797 -114.4540625 59.89810547 -114.17382812 59.29248047 C-106.48236747 44.77836203 -87.44479615 30.79894134 -72.99804688 24.07373047 C-71.98742187 23.39310547 -70.97679688 22.71248047 -69.93554688 22.01123047 C-66.73217307 19.8983669 -63.54100069 18.53978032 -59.99804688 17.07373047 C-58.70221643 16.41519369 -57.41065938 15.74819416 -56.12304688 15.07373047 C-52.58789963 13.27550528 -49.0290307 12.03589289 -45.25195312 10.84716797 C-43.07134998 10.09888474 -41.07341294 9.1984251 -38.99804688 8.19873047 C-26.3385288 2.47653993 -13.79336834 0.33921802 0 0 Z " fill="#DD2C2C" transform="translate(170.998046875,18.92626953125)"/>
<path d="M0 0 C2 1 4 2 6 3 C6 3.66 6 4.32 6 5 C6.928125 5.2165625 6.928125 5.2165625 7.875 5.4375 C10 6 10 6 12 7 C12 7.66 12 8.32 12 9 C13.5778125 9.1546875 13.5778125 9.1546875 15.1875 9.3125 C18.90104094 9.98215492 20.99303465 10.78899607 24 13 C24.33 13.66 24.66 14.32 25 15 C27.18908103 16.08804019 27.18908103 16.08804019 29.9375 17.125 C35.31859452 19.296656 40.63748059 21.57473302 45.9375 23.9375 C46.70674805 24.27942383 47.47599609 24.62134766 48.26855469 24.97363281 C52.934258 27.05495078 57.56605814 29.19738511 62.1875 31.375 C66.41165292 33.33886057 70.47548487 34.84669222 75 36 C78.73726935 37.26537466 82.27045034 38.57584322 85.6875 40.5625 C90.02578928 42.44515384 94.27988321 42.83538107 98.9453125 43.46484375 C102.38673413 44.06775266 104.95002987 45.32977826 108 47 C111.73771834 47.7136724 111.73771834 47.7136724 115 48 C115 48.66 115 49.32 115 50 C115.86625 49.95875 116.7325 49.9175 117.625 49.875 C121.12358468 50.00457721 123.74551597 50.76019656 127 52 C127 52.66 127 53.32 127 54 C127.63808594 53.98839844 128.27617187 53.97679687 128.93359375 53.96484375 C129.75988281 53.95582031 130.58617187 53.94679688 131.4375 53.9375 C132.67306641 53.92009766 132.67306641 53.92009766 133.93359375 53.90234375 C136 54 136 54 137 55 C139.50067818 55.35426274 141.99055916 55.66123645 144.5 55.9375 C150.44265152 56.62939821 156.18711504 57.54677876 162 59 C162 59.66 162 60.32 162 61 C166.29 61 170.58 61 175 61 C175.37125 62.0725 175.7425 63.145 176.125 64.25 C179.8304518 74.91471783 179.8304518 74.91471783 187 83 C187 83.99 187 84.98 187 86 C187.804375 86.37125 187.804375 86.37125 188.625 86.75 C191 88 191 88 194 90.0625 C196.52028428 91.6901836 198.09722532 92.55341928 201 93 C201 93.66 201 94.32 201 95 C204.89667247 94.91892198 208.79180304 94.80609388 212.6875 94.6875 C213.79029297 94.66494141 214.89308594 94.64238281 216.02929688 94.61914062 C217.09599609 94.58369141 218.16269531 94.54824219 219.26171875 94.51171875 C220.24100342 94.48553467 221.22028809 94.45935059 222.22924805 94.43237305 C225.41134469 93.93581008 227.32029171 92.73576279 230 91 C230.66 91 231.32 91 232 91 C232 90.34 232 89.68 232 89 C232.99 88.525625 233.98 88.05125 235 87.5625 C240.02529646 84.70837625 243.36781926 80.40767902 247 76 C247.78375 75.0925 248.5675 74.185 249.375 73.25 C251.16025455 71.10374812 251.16025455 71.10374812 251.515625 68.46484375 C253 66 253 66 254.84033203 65.34716797 C257.34865826 64.8892273 259.83908928 64.57836161 262.375 64.3125 C264.19019526 64.08405595 266.0052999 63.85489073 267.8203125 63.625 C268.70493164 63.52058594 269.58955078 63.41617188 270.50097656 63.30859375 C273.77109256 62.90478107 277.00316844 62.37310401 280.25 61.8125 C281.18328125 61.65394531 282.1165625 61.49539063 283.078125 61.33203125 C283.71234375 61.22246094 284.3465625 61.11289062 285 61 C284.67 62.65 284.34 64.3 284 66 C283.38125 66.0825 282.7625 66.165 282.125 66.25 C279.83911206 66.80583476 279.83911206 66.80583476 278.8125 68.9375 C278.544375 69.618125 278.27625 70.29875 278 71 C277.67 71.66 277.34 72.32 277 73 C276.34 73 275.68 73 275 73 C274.6596875 73.8353125 274.6596875 73.8353125 274.3125 74.6875 C272.64333462 77.62841043 270.3864325 79.6135675 268 82 C267.505 82.86625 267.01 83.7325 266.5 84.625 C264.67943963 87.50755392 262.92457248 88.27184354 260 90 C258.14140135 91.42599379 256.30877562 92.8863167 254.5 94.375 C253.5821875 95.12523437 252.664375 95.87546875 251.71875 96.6484375 C248.94739487 98.96820463 248.94739487 98.96820463 246.45703125 101.67578125 C243.9797926 104.01911511 242.42003746 104.89581027 239.1875 105.8125 C238.00220703 106.16248047 238.00220703 106.16248047 236.79296875 106.51953125 C235.90544922 106.75736328 235.90544922 106.75736328 235 107 C235 107.66 235 108.32 235 109 C233.989375 109.433125 232.97875 109.86625 231.9375 110.3125 C230.98810547 110.72242188 230.98810547 110.72242188 230.01953125 111.140625 C228.68943029 111.70662541 227.35348549 112.25911387 226.01171875 112.796875 C222.32478328 114.08428975 222.32478328 114.08428975 220 117 C215.82718509 119.52309739 212.86238823 120.34731345 208 120 C208 120.66 208 121.32 208 122 C204.13498942 123.74548865 200.32224489 124.63415697 196.18359375 125.4375 C193.99388378 125.90679973 193.99388378 125.90679973 192.17114258 126.99633789 C182.38096018 131.52208172 167.38631559 129.11117249 156.75 129.0625 C154.82942825 129.05747402 152.90885523 129.05291306 150.98828125 129.04882812 C146.32548882 129.03791167 141.66275881 129.0207078 137 129 C137 128.34 137 127.68 137 127 C136.42032471 126.98541748 135.84064941 126.97083496 135.2434082 126.95581055 C132.59912447 126.88101472 129.95605998 126.78446102 127.3125 126.6875 C126.40048828 126.66494141 125.48847656 126.64238281 124.54882812 126.61914062 C119.45884897 126.41554146 116.25100062 126.01805916 112 123 C109.32518903 122.05120572 109.32518903 122.05120572 106.5625 121.375 C105.60472656 121.12492187 104.64695312 120.87484375 103.66015625 120.6171875 C100.87655267 119.93118913 100.87655267 119.93118913 97.5 119.5 C95 119 95 119 93.68359375 117.6328125 C91.5234439 115.53781798 89.30894918 114.58984726 86.5625 113.375 C85.61503906 112.94960938 84.66757813 112.52421875 83.69140625 112.0859375 C81.12244879 110.96806969 81.12244879 110.96806969 78.80078125 110.4921875 C75.77603872 109.66546828 74.12551927 107.22673447 72 105 C69.38473731 102.57154179 66.93621163 100.3600814 63.5625 99.0625 C60.38716895 97.74589932 58.37549816 95.80308167 55.84375 93.515625 C54.01179174 92.00969321 52.22695531 90.96043594 50.125 89.875 C47 88 47 88 46.0625 85.75 C46.041875 85.1725 46.02125 84.595 46 84 C45.34 84 44.68 84 44 84 C42.62508701 82.49212839 41.32635538 80.91460239 40.0625 79.3125 C37.42569833 76.00793686 34.78498341 72.72354561 32.03125 69.515625 C31.5374585 68.94030029 31.04366699 68.36497559 30.53491211 67.7722168 C29.56974646 66.651498 28.60190003 65.53308107 27.63110352 64.41723633 C23.92695169 60.09762957 22 57.7460676 22 52 C21.38648682 51.74565186 20.77297363 51.49130371 20.14086914 51.22924805 C17.68755509 49.82059983 17.02183197 48.81976653 15.74609375 46.33203125 C15.36646484 45.60306641 14.98683594 44.87410156 14.59570312 44.12304688 C14.02239258 42.97932617 14.02239258 42.97932617 13.4375 41.8125 C13.05142578 41.06935547 12.66535156 40.32621094 12.26757812 39.56054688 C8.80170995 32.82365491 5.91338286 25.95267509 3.375 18.8125 C2.94960938 17.62269531 2.52421875 16.43289063 2.0859375 15.20703125 C0.25887132 9.81127105 -0.09466422 5.67985315 0 0 Z " fill="#FCFCFD" transform="translate(26,286)"/>
<path d="M0 0 C12.34271804 -0.28866612 24.56881399 -0.35099042 36.81445312 1.38623047 C37.64855713 1.50385742 38.48266113 1.62148438 39.34204102 1.74267578 C44.29310248 2.54138234 48.40774179 3.99739926 53.00195312 6.07373047 C55.5850545 6.93789407 58.19985711 7.68610039 60.81445312 8.44873047 C67.26032221 10.40209137 73.10714856 12.78157438 79.00195312 16.07373047 C79.93910156 16.58291016 80.87625 17.09208984 81.84179688 17.61669922 C83.73607131 18.64647257 85.62690259 19.68261341 87.51367188 20.72607422 C89.49780518 21.80068331 91.52521326 22.79527474 93.56445312 23.76123047 C96.00195312 25.07373047 96.00195312 25.07373047 98.00195312 28.07373047 C99.71806416 29.07749353 101.43670724 30.07798428 103.18164062 31.03076172 C105.6933049 32.46984833 107.86267884 34.12893566 110.00195312 36.07373047 C110.00195312 36.73373047 110.00195312 37.39373047 110.00195312 38.07373047 C110.59234375 38.17169922 111.18273437 38.26966797 111.79101562 38.37060547 C114.44059716 39.21322857 115.49894594 40.29583539 117.37695312 42.32373047 C119.57138413 44.63117938 121.74272827 46.73878867 124.25195312 48.69873047 C126.93234597 51.0136152 128.30210929 53.01401156 130.00195312 56.07373047 C130.66195312 56.40373047 131.32195312 56.73373047 132.00195312 57.07373047 C132.00195312 57.73373047 132.00195312 58.39373047 132.00195312 59.07373047 C132.66195312 59.07373047 133.32195312 59.07373047 134.00195312 59.07373047 C135.07109548 60.69691019 136.05627519 62.37565184 137.00195312 64.07373047 C137.60394531 65.06630859 138.2059375 66.05888672 138.82617188 67.08154297 C139.44105469 68.11021484 140.0559375 69.13888672 140.68945312 70.19873047 C141.62337891 71.74947266 141.62337891 71.74947266 142.57617188 73.33154297 C144.00195312 76.07373047 144.00195312 76.07373047 144.00195312 79.07373047 C137.39647109 78.37274054 130.82635767 77.52096993 124.25195312 76.57373047 C123.33285156 76.44353516 122.41375 76.31333984 121.46679688 76.17919922 C120.57605469 76.05158203 119.6853125 75.92396484 118.76757812 75.79248047 C117.97125977 75.67839844 117.17494141 75.56431641 116.35449219 75.44677734 C113.88777346 75.05562477 111.4475964 74.57912726 109.00195312 74.07373047 C108.74800781 73.27708984 108.4940625 72.48044922 108.23242188 71.65966797 C105.4653869 62.12979931 105.4653869 62.12979931 100.00195312 54.07373047 C100.00195312 52.75373047 100.00195312 51.43373047 100.00195312 50.07373047 C98.35195313 49.74373047 96.70195312 49.41373047 95.00195312 49.07373047 C95.00195312 48.41373047 95.00195312 47.75373047 95.00195312 47.07373047 C94.34195313 47.07373047 93.68195313 47.07373047 93.00195312 47.07373047 C93.00195312 46.41373047 93.00195312 45.75373047 93.00195312 45.07373047 C92.23882812 44.78498047 91.47570312 44.49623047 90.68945312 44.19873047 C88.00195312 43.07373047 88.00195312 43.07373047 85.00195312 41.07373047 C75.59449537 37.43903088 65.8306261 37.33925877 56.00195312 39.07373047 C54.85726562 39.22841797 54.85726562 39.22841797 53.68945312 39.38623047 C51.81101575 39.92863878 51.81101575 39.92863878 51.12695312 41.94873047 C49.47013551 45.07827485 47.21415349 45.80223449 44.00195312 47.07373047 C43.34195313 46.74373047 42.68195313 46.41373047 42.00195312 46.07373047 C43.4151529 44.94437851 44.83266717 43.8204242 46.25195312 42.69873047 C47.04085937 42.07224609 47.82976562 41.44576172 48.64257812 40.80029297 C52.57987774 37.91902405 55.08755238 36.80070821 60.00195312 37.07373047 C60.00195312 36.41373047 60.00195312 35.75373047 60.00195312 35.07373047 C65.28195313 35.07373047 70.56195313 35.07373047 76.00195312 35.07373047 C75.01195312 34.08373047 74.02195312 33.09373047 73.00195312 32.07373047 C73.00195312 31.41373047 73.00195312 30.75373047 73.00195312 30.07373047 C72.19757813 29.80560547 71.39320313 29.53748047 70.56445312 29.26123047 C69.71882813 28.86935547 68.87320313 28.47748047 68.00195312 28.07373047 C67.50695312 26.58873047 67.50695312 26.58873047 67.00195312 25.07373047 C66.01195312 25.07373047 65.02195312 25.07373047 64.00195312 25.07373047 C64.00195312 24.41373047 64.00195312 23.75373047 64.00195312 23.07373047 C63.25945312 22.79916016 62.51695312 22.52458984 61.75195312 22.24169922 C59.20416438 21.15961281 57.24533378 19.98551551 55.00195312 18.38623047 C44.67916739 11.2355399 44.67916739 11.2355399 33.00195312 7.07373047 C32.50695312 5.09373047 32.50695312 5.09373047 32.00195312 3.07373047 C21.70650999 2.06832938 11.52240735 1.95323549 1.18945312 2.01123047 C-0.38932148 2.016261 -1.96809766 2.02082113 -3.546875 2.02490234 C-7.36397207 2.03577231 -11.18099143 2.05294911 -14.99804688 2.07373047 C-14.99804688 2.73373047 -14.99804688 3.39373047 -14.99804688 4.07373047 C-17.41279304 4.60533504 -19.82912794 5.12427813 -22.24804688 5.63623047 C-22.92996094 5.78769531 -23.611875 5.93916016 -24.31445312 6.09521484 C-27.81573726 6.82606542 -30.60102861 7.39576593 -33.99804688 6.07373047 C-22.48615555 2.29682666 -12.12996516 0.29831022 0 0 Z " fill="#C42829" transform="translate(170.998046875,18.92626953125)"/>
<path d="M0 0 C0 0.66 0 1.32 0 2 C0.804375 2.309375 0.804375 2.309375 1.625 2.625 C7.16564808 5.83274363 10.26765783 9.6444364 12.42211914 15.73974609 C13.42334885 19.65583592 13.31503833 23.48417772 13.1875 27.5 C13.16719727 28.73363281 13.16719727 28.73363281 13.14648438 29.9921875 C13.11155016 31.99508221 13.05776057 33.99763356 13 36 C12.34 36 11.68 36 11 36 C10.9175 36.53625 10.835 37.0725 10.75 37.625 C9.72418729 40.87340691 8.03436106 43.28751859 6 46 C5.34 46 4.68 46 4 46 C3.67 46.99 3.34 47.98 3 49 C-2.81176004 52.34616487 -9.10984027 51.40385293 -15.3125 49.8125 C-18.51417882 48.7680499 -19.70291086 48.37904477 -21.8125 45.6875 C-22.4003125 44.3571875 -22.4003125 44.3571875 -23 43 C-23.845625 41.989375 -24.69125 40.97875 -25.5625 39.9375 C-30.99921463 33.38556186 -31.42054254 26.25305735 -31.3515625 17.91796875 C-30.51409923 10.96702357 -27.31204925 4.56736945 -22 0 C-14.75635962 -3.83649787 -7.18169801 -3.92169127 0 0 Z " fill="#FBFBFB" transform="translate(250,76)"/>
<path d="M0 0 C-0.33 1.65 -0.66 3.3 -1 5 C-1.928125 5.12375 -1.928125 5.12375 -2.875 5.25 C-5.16088794 5.80583476 -5.16088794 5.80583476 -6.1875 7.9375 C-6.455625 8.618125 -6.72375 9.29875 -7 10 C-7.33 10.66 -7.66 11.32 -8 12 C-8.66 12 -9.32 12 -10 12 C-10.3403125 12.8353125 -10.3403125 12.8353125 -10.6875 13.6875 C-12.35666538 16.62841043 -14.6135675 18.6135675 -17 21 C-17.7425 22.299375 -17.7425 22.299375 -18.5 23.625 C-20.32056037 26.50755392 -22.07542752 27.27184354 -25 29 C-26.85859865 30.42599379 -28.69122438 31.8863167 -30.5 33.375 C-31.87671875 34.50035156 -31.87671875 34.50035156 -33.28125 35.6484375 C-36.05260513 37.96820463 -36.05260513 37.96820463 -38.54296875 40.67578125 C-41.0202074 43.01911511 -42.57996254 43.89581027 -45.8125 44.8125 C-46.99779297 45.16248047 -46.99779297 45.16248047 -48.20703125 45.51953125 C-48.79871094 45.67808594 -49.39039063 45.83664062 -50 46 C-50 46.66 -50 47.32 -50 48 C-51.010625 48.433125 -52.02125 48.86625 -53.0625 49.3125 C-53.69542969 49.58578125 -54.32835937 49.8590625 -54.98046875 50.140625 C-56.31056971 50.70662541 -57.64651451 51.25911387 -58.98828125 51.796875 C-62.67521672 53.08428975 -62.67521672 53.08428975 -65 56 C-69.17281491 58.52309739 -72.13761177 59.34731345 -77 59 C-77 59.66 -77 60.32 -77 61 C-80.86501058 62.74548865 -84.67775511 63.63415697 -88.81640625 64.4375 C-91.00611622 64.90679973 -91.00611622 64.90679973 -92.82885742 65.99633789 C-102.61903982 70.52208172 -117.61368441 68.11117249 -128.25 68.0625 C-130.17057175 68.05747402 -132.09114477 68.05291306 -134.01171875 68.04882812 C-138.67451118 68.03791167 -143.33724119 68.0207078 -148 68 C-148 67.67 -148 67.34 -148 67 C-147.07364746 67.00636475 -146.14729492 67.01272949 -145.19287109 67.01928711 C-141.68409171 67.02649962 -138.1782855 67.00191774 -134.66992188 66.95727539 C-133.16509479 66.94430826 -131.66010789 66.94323989 -130.15527344 66.95532227 C-120.06596085 67.02604175 -112.83979497 65.76355813 -104.03759766 60.69360352 C-101 59 -101 59 -97.66943359 57.90209961 C-94.85695917 57.30073102 -94.85695917 57.30073102 -94 55 C-90.9375 54.375 -90.9375 54.375 -88 54 C-88 53.34 -88 52.68 -88 52 C-87.25234375 51.62488281 -86.5046875 51.24976563 -85.734375 50.86328125 C-80.42387058 48.10376521 -76.49642846 45.97568666 -73 41 C-68.65517241 38 -68.65517241 38 -66 38 C-66 37.34 -66 36.68 -66 36 C-69.96 36 -73.92 36 -78 36 C-78 35.34 -78 34.68 -78 34 C-76.75863281 33.96261719 -75.51726562 33.92523438 -74.23828125 33.88671875 C-72.59632489 33.8210405 -70.95439913 33.7545938 -69.3125 33.6875 C-68.08756836 33.65366211 -68.08756836 33.65366211 -66.83789062 33.61914062 C-62.02991171 33.40502011 -59.02412937 32.86998137 -55 30 C-54.34 30 -53.68 30 -53 30 C-53 29.34 -53 28.68 -53 28 C-52.01 27.525625 -51.02 27.05125 -50 26.5625 C-44.97470354 23.70837625 -41.63218074 19.40767902 -38 15 C-37.21625 14.0925 -36.4325 13.185 -35.625 12.25 C-33.83795605 10.10446539 -33.83795605 10.10446539 -33.49609375 7.46484375 C-32 5 -32 5 -30.11132812 4.34716797 C-27.55650637 3.89200464 -25.01893999 3.57788168 -22.4375 3.3125 C-20.68581545 3.10344054 -18.93450543 2.89121781 -17.18359375 2.67578125 C-16.32233887 2.57346191 -15.46108398 2.47114258 -14.57373047 2.36572266 C-11.2952096 1.8998505 -8.10857555 1.18206883 -4.89477539 0.39135742 C-3 0 -3 0 0 0 Z " fill="#DFE0E1" transform="translate(311,347)"/>
<path d="M0 0 C2.6150758 -0.00218165 5.22972517 -0.0203894 7.84472656 -0.03930664 C18.35913695 -0.07317367 28.48501901 0.57813731 38.88378906 2.18530273 C38.88378906 2.51530273 38.88378906 2.84530273 38.88378906 3.18530273 C22.85281655 3.35809166 22.85281655 3.35809166 15.19628906 2.68530273 C5.643242 1.85045468 -3.76588313 1.95274934 -13.29589844 2.96264648 C-18.56125529 3.37833255 -23.83851476 3.26081826 -29.11621094 3.18530273 C-29.11621094 2.52530273 -29.11621094 1.86530273 -29.11621094 1.18530273 C-19.4107518 0.11878225 -9.75083978 -0.00090722 0 0 Z " fill="#434B63" transform="translate(87.1162109375,233.814697265625)"/>
<path d="M0 0 C0.99 0.495 0.99 0.495 2 1 C-3.56149953 5.47632889 -9.66929019 8.30078275 -16.12890625 11.21875 C-20.65509505 13.26987257 -25.03582296 15.58504229 -29.4140625 17.93359375 C-32.15978552 19.06589343 -34.06161617 19.21746162 -37 19 C-37 19.66 -37 20.32 -37 21 C-38.17755859 21.38091797 -38.17755859 21.38091797 -39.37890625 21.76953125 C-46.14506897 23.94087087 -46.14506897 23.94087087 -52.6875 26.6875 C-56.78521362 28.31112238 -60.62965661 28.7126078 -65 29 C-62.83315267 26.83315267 -61.67932046 26.41809576 -58.80859375 25.51953125 C-57.95483154 25.24633057 -57.10106934 24.97312988 -56.22143555 24.69165039 C-55.30273682 24.40153076 -54.38403809 24.11141113 -53.4375 23.8125 C-35.35617683 17.92924959 -17.90836439 10.56818157 -1.6015625 0.71484375 C-1.07304687 0.47894531 -0.54453125 0.24304688 0 0 Z " fill="#444C60" transform="translate(298,159)"/>
<path d="M0 0 C18.24751762 0.6477087 34.63953357 4.5332435 52 10 C52 10.33 52 10.66 52 11 C47.03843163 11.31009802 43.95678369 10.62940136 39.27441406 8.79516602 C35.23858062 7.38418388 31.06927887 6.66103427 26.875 5.875 C26.00746094 5.70613281 25.13992187 5.53726563 24.24609375 5.36328125 C19.84015537 4.51160062 15.42895779 3.72348032 11 3 C9.04098424 2.64962773 7.08261776 2.29560081 5.125 1.9375 C4.15820312 1.76089844 3.19140625 1.58429688 2.1953125 1.40234375 C1.47085938 1.26957031 0.74640625 1.13679687 0 1 C0 0.67 0 0.34 0 0 Z " fill="#454D61" transform="translate(177,243)"/>
<path d="M0 0 C24.37889093 -0.27377188 24.37889093 -0.27377188 32.79248047 1.04150391 C32.79248047 1.37150391 32.79248047 1.70150391 32.79248047 2.04150391 C16.95248047 2.04150391 1.11248047 2.04150391 -15.20751953 2.04150391 C-15.20751953 2.70150391 -15.20751953 3.36150391 -15.20751953 4.04150391 C-17.6222657 4.57310847 -20.0386006 5.09205156 -22.45751953 5.60400391 C-23.13943359 5.75546875 -23.82134766 5.90693359 -24.52392578 6.06298828 C-28.02520991 6.79383885 -30.81050126 7.36353937 -34.20751953 6.04150391 C-22.63904896 2.24603717 -12.20696534 0.15795282 0 0 Z " fill="#873242" transform="translate(171.20751953125,18.95849609375)"/>
<path d="M0 0 C0.72574219 0.01675781 1.45148438 0.03351562 2.19921875 0.05078125 C7.95508874 0.45941299 13.25201722 2.79765684 18 6 C18.495 7.485 18.495 7.485 19 9 C16.0280615 7.87548273 13.66559313 6.77706209 11 5 C1.59254225 1.36530041 -8.17132703 1.2655283 -18 3 C-19.1446875 3.1546875 -19.1446875 3.1546875 -20.3125 3.3125 C-22.19093738 3.85490831 -22.19093738 3.85490831 -22.875 5.875 C-24.53181761 9.00454438 -26.78779963 9.72850402 -30 11 C-30.66 10.67 -31.32 10.34 -32 10 C-30.58680023 8.87064804 -29.16928595 7.74669374 -27.75 6.625 C-26.96109375 5.99851562 -26.1721875 5.37203125 -25.359375 4.7265625 C-17.69111138 -0.88498141 -9.14810798 -0.25717573 0 0 Z " fill="#8C3241" transform="translate(245,55)"/>
<path d="M0 0 C0.33 0.66 0.66 1.32 1 2 C-0.73397418 5.65047197 -2.19333016 7.55609075 -6 9 C-6 9.99 -6 10.98 -6 12 C-6.66 12 -7.32 12 -8 12 C-8.04898438 12.68964844 -8.09796875 13.37929687 -8.1484375 14.08984375 C-9.23063836 27.69198905 -9.23063836 27.69198905 -11 32 C-14.47111407 34.41049588 -17.86154047 34.19248649 -22 34 C-21.67 33.34 -21.34 32.68 -21 32 C-18.36 32 -15.72 32 -13 32 C-13.03480469 31.35933594 -13.06960937 30.71867187 -13.10546875 30.05859375 C-13.29183646 24.10370181 -12.65599276 20.31198552 -10 15 C-9.62691369 13.67723944 -9.26953585 12.34767923 -9 11 C-8.34 11 -7.68 11 -7 11 C-7 10.01 -7 9.02 -7 8 C-6.34 8 -5.68 8 -5 8 C-5 7.01 -5 6.02 -5 5 C-4.34 5 -3.68 5 -3 5 C-2.690625 4.360625 -2.38125 3.72125 -2.0625 3.0625 C-1 1 -1 1 0 0 Z " fill="#863243" transform="translate(212,66)"/>
<path d="M0 0 C-2.64 0.33 -5.28 0.66 -8 1 C-8 1.66 -8 2.32 -8 3 C-8.94359375 3.18175781 -9.8871875 3.36351562 -10.859375 3.55078125 C-17.04077119 4.76099436 -23.16155683 5.99874478 -29.25 7.625 C-34.80693748 9.06708568 -40.27724925 9.67330754 -46 10 C-41.45822504 7.57672573 -36.69855389 6.39905325 -31.75 5.0625 C-30.28457764 4.66599243 -30.28457764 4.66599243 -28.78955078 4.26147461 C-5.40414718 -1.94925707 -5.40414718 -1.94925707 0 0 Z " fill="#454D61" transform="translate(201,198)"/>
<path d="M0 0 C0.66 0 1.32 0 2 0 C1 3 1 3 -1.75 4.6875 C-4.85020705 5.93950669 -6.71671912 6.28970125 -10 6 C-10 6.66 -10 7.32 -10 8 C-15.20063168 9.95768459 -20.34433097 10.82458093 -25.8125 11.625 C-26.66392578 11.7590625 -27.51535156 11.893125 -28.39257812 12.03125 C-33.98950215 12.86673904 -39.34187479 13.12586325 -45 13 C-41.97332204 10.98221469 -40.82934234 10.66822151 -37.3515625 10.2890625 C-35.97581055 10.12664062 -35.97581055 10.12664062 -34.57226562 9.9609375 C-33.59966797 9.85007812 -32.62707031 9.73921875 -31.625 9.625 C-14.61386395 7.88363736 -14.61386395 7.88363736 0 0 Z " fill="#444C60" transform="translate(321,321)"/>
<path d="M0 0 C-2.70879335 1.35439668 -5.00933268 1.06501451 -8 1 C-8 1.66 -8 2.32 -8 3 C-11.86501058 4.74548865 -15.67775511 5.63415697 -19.81640625 6.4375 C-22.01044991 6.9078893 -22.01044991 6.9078893 -23.85229492 8.00927734 C-26.23016523 9.10617375 -27.94128135 9.30843033 -30.546875 9.4140625 C-31.39121094 9.45273437 -32.23554688 9.49140625 -33.10546875 9.53125 C-33.97816406 9.5621875 -34.85085937 9.593125 -35.75 9.625 C-36.63816406 9.66367187 -37.52632812 9.70234375 -38.44140625 9.7421875 C-40.6273998 9.83620873 -42.81339062 9.92186143 -45 10 C-45 9.67 -45 9.34 -45 9 C-44.4016333 8.89977539 -43.8032666 8.79955078 -43.18676758 8.69628906 C-30.66825522 6.57560763 -18.78042199 4.13433156 -6.8046875 -0.140625 C-3.94354321 -1.01729874 -2.74238675 -1.05476414 0 0 Z " fill="#8E92A2" transform="translate(242,405)"/>
<path d="M0 0 C15.51237019 0.37973978 28.97291033 2.88438694 43 10 C43 10.66 43 11.32 43 12 C39.76724211 10.9749792 36.67334305 9.85745879 33.5625 8.5 C22.86208102 3.99456043 11.48998811 2.76198874 0 2 C0 1.34 0 0.68 0 0 Z " fill="#424B60" transform="translate(281,111)"/>
<path d="M0 0 C3.73829578 4.29904015 7 10.24928075 7 16 C8.0725 15.95875 9.145 15.9175 10.25 15.875 C15.93103623 15.85456462 21.43295193 16.96081769 27 18 C27 18.33 27 18.66 27 19 C19.37685526 19.23576736 12.41430591 18.83717315 5 17 C4.35035977 15.10546779 3.70544885 13.20931351 3.0625 11.3125 C2.70285156 10.25675781 2.34320313 9.20101562 1.97265625 8.11328125 C1.12793482 5.40949417 0.49106215 2.78613158 0 0 Z " fill="#862F3D" transform="translate(275,76)"/>
<path d="M0 0 C0 0.66 0 1.32 0 2 C0.66 2.33 1.32 2.66 2 3 C1.01 3 0.02 3 -1 3 C-1 2.34 -1 1.68 -1 1 C-3.72977064 0.91873891 -6.4571017 0.85938337 -9.1875 0.8125 C-9.95642578 0.78736328 -10.72535156 0.76222656 -11.51757812 0.73632812 C-16.23615196 0.67557396 -19.11251239 1.04086764 -23 4 C-23.763125 4.556875 -24.52625 5.11375 -25.3125 5.6875 C-25.869375 6.120625 -26.42625 6.55375 -27 7 C-25.35940762 3.340217 -23.69450693 0.85746134 -20.0546875 -0.984375 C-12.90907684 -3.49430276 -6.7576433 -3.69012881 0 0 Z " fill="#ACAFBC" transform="translate(250,76)"/>
<path d="M0 0 C-5.25353184 2.50736747 -10.47266651 3.96375516 -16.1328125 5.3046875 C-18.41774881 5.85880012 -20.63510427 6.48068846 -22.875 7.1875 C-26.05019285 8.01305014 -28.73473169 8.15928138 -32 8 C-28.82892713 5.88595142 -26.75850871 5.3866018 -23.0625 4.625 C-17.36839497 3.38936647 -12.01162897 1.7139886 -6.55859375 -0.328125 C-3.8760076 -1.03255984 -2.56865858 -0.94284879 0 0 Z " fill="#444D60" transform="translate(233,189)"/>
<path d="M0 0 C0.33 0.66 0.66 1.32 1 2 C0.34 2 -0.32 2 -1 2 C-1.226875 2.886875 -1.45375 3.77375 -1.6875 4.6875 C-3.19565668 8.4938002 -5.09177435 10.16101782 -8 13 C-8.72266736 14.2088254 -9.41006652 15.43936639 -10.0625 16.6875 C-11.91180917 19.84922212 -12.6069469 20.90937579 -16 22 C-14.61624869 18.16009012 -12.83690651 15.02947436 -10.5 11.6875 C-9.8915625 10.80449219 -9.283125 9.92148438 -8.65625 9.01171875 C-8.1096875 8.34785156 -7.563125 7.68398437 -7 7 C-6.34 7 -5.68 7 -5 7 C-4.731875 6.401875 -4.46375 5.80375 -4.1875 5.1875 C-3.01506533 3.02775192 -1.80630718 1.64209744 0 0 Z " fill="#9B313D" transform="translate(61,73)"/>
<path d="M0 0 C3.96 0.33 7.92 0.66 12 1 C12 1.66 12 2.32 12 3 C20.91 3 29.82 3 39 3 C39 3.33 39 3.66 39 4 C28.77 4 18.54 4 8 4 C8 3.34 8 2.68 8 2 C5.36 1.67 2.72 1.34 0 1 C0 0.67 0 0.34 0 0 Z " fill="#72778E" transform="translate(151,412)"/>
<path d="M0 0 C1.7015625 0.495 1.7015625 0.495 3.4375 1 C8.20179476 2.06210393 12.82851881 2.22488628 17.6875 2.25 C18.41187256 2.25902344 19.13624512 2.26804687 19.88256836 2.27734375 C24.32836129 2.2528743 27.83552481 1.47348747 32 0 C32.66 0.33 33.32 0.66 34 1 C30.25453775 3.5916327 27.80126654 4.36579572 23.26171875 4.29296875 C21.66166992 4.2784668 21.66166992 4.2784668 20.02929688 4.26367188 C18.37510742 4.2259668 18.37510742 4.2259668 16.6875 4.1875 C15.56537109 4.17396484 14.44324219 4.16042969 13.28710938 4.14648438 C10.52424771 4.1112138 7.76237171 4.06192235 5 4 C5 3.34 5 2.68 5 2 C3.35 1.67 1.7 1.34 0 1 C0 0.67 0 0.34 0 0 Z " fill="#6B7188" transform="translate(222,377)"/>
<path d="M0 0 C0 0.99 0 1.98 0 3 C-0.99 2.67 -1.98 2.34 -3 2 C-5.19559341 2.22269998 -7.3834476 2.52577755 -9.5625 2.875 C-15.36771536 3.76718263 -21.14988466 4.48777792 -27 5 C-26.67 4.34 -26.34 3.68 -26 3 C-23.31957627 2.34784333 -20.71578557 1.82187251 -18 1.375 C-16.84383179 1.17716919 -16.84383179 1.17716919 -15.66430664 0.9753418 C-10.37839304 0.11357466 -5.36148706 -0.29244475 0 0 Z " fill="#464F65" transform="translate(204,116)"/>
<path d="M0 0 C5.94162007 0.56624836 10.92821148 2.3206058 16.4375 4.5625 C17.26443359 4.89185547 18.09136719 5.22121094 18.94335938 5.56054688 C20.96498093 6.36685836 22.98288449 7.18248123 25 8 C25 8.66 25 9.32 25 10 C4.234375 4.234375 4.234375 4.234375 0 0 Z " fill="#424B60" transform="translate(243,259)"/>
<path d="M0 0 C-0.92941406 0.25394531 -1.85882813 0.50789063 -2.81640625 0.76953125 C-10.4948483 2.80291297 -10.4948483 2.80291297 -17.875 5.6875 C-21.67439638 7.28324648 -24.90702307 7.64096694 -29 8 C-29 7.34 -29 6.68 -29 6 C-24.49646738 4.24252386 -20.82360189 3.80705592 -16 4 C-16 3.34 -16 2.68 -16 2 C-14.08654673 1.46748234 -12.1690705 0.94940517 -10.25 0.4375 C-9.18265625 0.14746094 -8.1153125 -0.14257812 -7.015625 -0.44140625 C-4.15664073 -0.97098494 -2.68402617 -0.98370862 0 0 Z " fill="#434C64" transform="translate(156,126)"/>
<path d="M0 0 C5.98555994 0.36238254 11.19273168 1.23580153 16.8203125 3.30859375 C19.07448533 4.02362707 21.15030966 4.3325481 23.5 4.5625 C24.655 4.706875 25.81 4.85125 27 5 C27.33 5.66 27.66 6.32 28 7 C18.17553797 6.22060635 9.2843514 4.29232319 0 1 C0 0.67 0 0.34 0 0 Z " fill="#444D64" transform="translate(150,318)"/>
<path d="M0 0 C0.66 0 1.32 0 2 0 C1.83628906 0.63292969 1.67257813 1.26585938 1.50390625 1.91796875 C0.82546399 6.06751093 0.89444625 10.11641498 0.9375 14.3125 C0.94201172 15.14845703 0.94652344 15.98441406 0.95117188 16.84570312 C0.96289452 18.89716649 0.98082797 20.94859273 1 23 C0.67 21.68 0.34 20.36 0 19 C-0.66 19 -1.32 19 -2 19 C-2.05428973 16.77110504 -2.09292338 14.54182529 -2.125 12.3125 C-2.15980469 10.45044922 -2.15980469 10.45044922 -2.1953125 8.55078125 C-2.01032021 5.18762143 -1.45767895 3.0014413 0 0 Z " fill="#666C84" transform="translate(219,86)"/>
<path d="M0 0 C1.47906892 -0.02689216 2.95827483 -0.04634621 4.4375 -0.0625 C5.26121094 -0.07410156 6.08492187 -0.08570313 6.93359375 -0.09765625 C9 0 9 0 10 1 C11.670625 1.185625 11.670625 1.185625 13.375 1.375 C16.90207504 1.98311639 17.94362388 2.21784407 20 5 C17.36 5 14.72 5 12 5 C12 4.34 12 3.68 12 3 C10.9790625 3.061875 10.9790625 3.061875 9.9375 3.125 C6.40075832 2.97450035 3.36676967 2.05624147 0 1 C0 0.67 0 0.34 0 0 Z " fill="#898EA1" transform="translate(141,335)"/>
<path d="M0 0 C0.66 0 1.32 0 2 0 C5.01171069 3.83308633 7.10324057 7.04445266 7 12 C5.54979954 14.33524928 3.9412695 16.01138247 2 18 C1.34 17.67 0.68 17.34 0 17 C0.495 16.67 0.99 16.34 1.5 16 C3.4427634 13.4096488 3.41032173 11.24911409 3.3046875 8.07421875 C2.85537931 5.01546683 1.57620196 2.62700327 0 0 Z " fill="#444D60" transform="translate(323,303)"/>
<path d="M0 0 C3.62693306 0.24812107 7.25080707 0.52732497 10.875 0.8125 C12.42380859 0.91788086 12.42380859 0.91788086 14.00390625 1.02539062 C14.99003906 1.10595703 15.97617188 1.18652344 16.9921875 1.26953125 C17.90339355 1.33760986 18.81459961 1.40568848 19.75341797 1.47583008 C22 2 22 2 24 5 C23.01773438 4.85433594 22.03546875 4.70867187 21.0234375 4.55859375 C18.30340075 4.16874465 15.58323297 3.83235484 12.8515625 3.53515625 C12.15675781 3.45716797 11.46195313 3.37917969 10.74609375 3.29882812 C9.3092966 3.13874299 7.87174717 2.98529494 6.43359375 2.83789062 C4.6130666 2.6278298 2.80414577 2.3217183 1 2 C0.67 1.34 0.34 0.68 0 0 Z " fill="#878B9E" transform="translate(162,340)"/>
<path d="M0 0 C0.66 0.33 1.32 0.66 2 1 C1.34 1.639375 0.68 2.27875 0 2.9375 C-2.11602431 4.64082319 -2.11602431 4.64082319 -2 6 C-5.96 6.66 -9.92 7.32 -14 8 C-11.09519808 5.09519808 -9.11286484 3.9139468 -5.4375 2.25 C-4.46683594 1.80140625 -3.49617187 1.3528125 -2.49609375 0.890625 C-1.67238281 0.59671875 -0.84867188 0.3028125 0 0 Z " fill="#EDEDED" transform="translate(210,406)"/>
<path d="M0 0 C0.66 0.33 1.32 0.66 2 1 C-5.11253431 9.85910339 -5.11253431 9.85910339 -11 12 C-11.99 12 -12.98 12 -14 12 C-13.07316406 11.21753906 -12.14632813 10.43507813 -11.19140625 9.62890625 C-9.98175093 8.60679439 -8.7721166 7.58465769 -7.5625 6.5625 C-6.64500977 5.7880957 -6.64500977 5.7880957 -5.70898438 4.99804688 C-2.78350052 2.5775409 -2.78350052 2.5775409 0 0 Z " fill="#797E91" transform="translate(288,373)"/>
<path d="M0 0 C0 0.66 0 1.32 0 2 C-3.08809695 3.76462683 -4.23312136 4 -8 4 C-8 4.66 -8 5.32 -8 6 C-9.65 6 -11.3 6 -13 6 C-13 6.66 -13 7.32 -13 8 C-14.32 7.67 -15.64 7.34 -17 7 C-15.25318707 6.01515892 -13.5024149 5.03733813 -11.75 4.0625 C-10.28820312 3.24458984 -10.28820312 3.24458984 -8.796875 2.41015625 C-5.76966407 0.88386694 -3.3809579 0 0 0 Z " fill="#723449" transform="translate(86,129)"/>
<path d="M0 0 C2.25 -0.3125 2.25 -0.3125 5 0 C7.3125 2.5 7.3125 2.5 9 5 C7 4 5 3 3 2 C3 4.64 3 7.28 3 10 C0.70366176 6.55549263 0.45983515 4.06187717 0 0 Z " fill="#81869A" transform="translate(23,284)"/>
<path d="M0 0 C-7.32901118 1.80110167 -14.47407567 3.3622098 -22 4 C-21 2 -21 2 -18.0625 0.9375 C-12.2050342 -0.58737746 -5.8791112 -1.79752136 0 0 Z " fill="#9E303D" transform="translate(185,101)"/>
<path d="M0 0 C3.05402088 1.52701044 3.65869481 3.95157912 5 7 C5 7.99 5 8.98 5 10 C2.03 9.67 -0.94 9.34 -4 9 C0 7 0 7 2 7 C1.34 4.69 0.68 2.38 0 0 Z " fill="#9B2C36" transform="translate(310,88)"/>
<path d="M0 0 C6.0358349 -0.7941888 11.0687015 1.70318085 16 5 C16.33 5.99 16.66 6.98 17 8 C14.0280615 6.87548273 11.66559313 5.77706209 9 4 C7.45233858 3.4172881 5.88807778 2.87735813 4.3125 2.375 C3.50425781 2.11460938 2.69601563 1.85421875 1.86328125 1.5859375 C1.24839844 1.39257812 0.63351563 1.19921875 0 1 C0 0.67 0 0.34 0 0 Z " fill="#8C2F3C" transform="translate(247,56)"/>
<path d="M0 0 C-5.52678198 3.68452132 -10.40772276 5.32731865 -17 6 C-15.55630957 3.11261913 -13.74330462 2.95547092 -10.75 1.875 C-9.79609375 1.52179688 -8.8421875 1.16859375 -7.859375 0.8046875 C-5.0781977 0.02200646 -2.86925724 -0.15707613 0 0 Z " fill="#434C63" transform="translate(123,135)"/>
<path d="M0 0 C1.32 0 2.64 0 4 0 C4 0.66 4 1.32 4 2 C4.60328125 2.03738281 5.2065625 2.07476562 5.828125 2.11328125 C13.76625659 2.76625659 13.76625659 2.76625659 17 6 C16.29488281 5.85691406 15.58976563 5.71382813 14.86328125 5.56640625 C11.97588399 4.99522944 9.08390614 4.46094689 6.1875 3.9375 C5.21167969 3.76089844 4.23585938 3.58429688 3.23046875 3.40234375 C2.49441406 3.26957031 1.75835937 3.13679688 1 3 C0.67 2.01 0.34 1.02 0 0 Z " fill="#A1A4B3" transform="translate(120,402)"/>
<path d="M0 0 C-5.69398894 2.09570426 -10.95198929 3.45018084 -17 4 C-17 3.34 -17 2.68 -17 2 C-15.02 2 -13.04 2 -11 2 C-11 1.34 -11 0.68 -11 0 C-6.97959015 -0.69584017 -3.91736581 -1.1700097 0 0 Z " fill="#444D64" transform="translate(48,238)"/>
<path d="M0 0 C9.59453303 0.59453303 9.59453303 0.59453303 13 4 C7.66404866 4.27131956 4.38616179 4.4266889 0 1 C0 0.67 0 0.34 0 0 Z " fill="#A2A6B5" transform="translate(138,408)"/>
<path d="M0 0 C0.66 0.33 1.32 0.66 2 1 C-1.75 4 -1.75 4 -4 4 C-4.33 4.99 -4.66 5.98 -5 7 C-6.98 7 -8.96 7 -11 7 C-9.38652099 3.77304197 -6.23293656 3.33776685 -3 2 C-2.01 1.34 -1.02 0.68 0 0 Z " fill="#7D8295" transform="translate(257,395)"/>
<path d="M0 0 C0.66 0 1.32 0 2 0 C1.52797514 4.24822374 -0.96655518 6.19989709 -4 9 C-4 4.9666466 -2.39120082 3.16482462 0 0 Z " fill="#A92F3A" transform="translate(50,86)"/>
<path d="M0 0 C0.33 0.66 0.66 1.32 1 2 C1.66 2 2.32 2 3 2 C5.169283 5.1635377 6.66749209 8.4124787 8 12 C4.24623848 10.74874616 3.75926711 9.4347596 2 6 C2 5.34 2 4.68 2 4 C1.34 4 0.68 4 0 4 C0 2.68 0 1.36 0 0 Z " fill="#8A2F3C" transform="translate(302,76)"/>
<path d="M0 0 C0.33 0.66 0.66 1.32 1 2 C-0.54442235 5.63393495 -1.48567857 6.78822059 -5.1875 8.3125 C-6.5796875 8.6528125 -6.5796875 8.6528125 -8 9 C-6.625 7 -6.625 7 -5 5 C-4.34 5 -3.68 5 -3 5 C-2.690625 4.360625 -2.38125 3.72125 -2.0625 3.0625 C-1 1 -1 1 0 0 Z " fill="#767B8F" transform="translate(300,361)"/>
<path d="M0 0 C-0.375 2.4375 -0.375 2.4375 -1 5 C-1.99 5.495 -1.99 5.495 -3 6 C-2.67 4.68 -2.34 3.36 -2 2 C-5.3 2.33 -8.6 2.66 -12 3 C-8.06769671 0.37846447 -4.67664739 0 0 0 Z " fill="#8F93A3" transform="translate(311,347)"/>
<path d="M0 0 C-1.5830577 4.2742558 -4.50568404 6.26531794 -8 9 C-8.33 8.34 -8.66 7.68 -9 7 C-8.34 7 -7.68 7 -7 7 C-6.731875 6.401875 -6.46375 5.80375 -6.1875 5.1875 C-3.37142857 0 -3.37142857 0 0 0 Z " fill="#4C5568" transform="translate(38,179)"/>
<path d="M0 0 C2.0625 0.4375 2.0625 0.4375 4 1 C0.71195019 3.91227269 -1.59885603 5.49701212 -6 6 C-4 4 -2 2 0 0 Z " fill="#68354B" transform="translate(219,60)"/>
<path d="M0 0 C4.62 0.99 9.24 1.98 14 3 C14 3.66 14 4.32 14 5 C8.58609132 4.53328373 4.79482068 3.75702189 0 1 C0 0.67 0 0.34 0 0 Z " fill="#9296A7" transform="translate(109,325)"/>
<path d="M0 0 C-3.72965139 2.03435531 -5.66905042 3 -10 3 C-9.67 2.01 -9.34 1.02 -9 0 C-5.62182575 -0.84454356 -3.32534757 -1.10844919 0 0 Z " fill="#A3303B" transform="translate(132,113)"/>
<path d="M0 0 C-1.4117783 0.53394179 -2.82970244 1.05165104 -4.25 1.5625 C-5.03890625 1.85253906 -5.8278125 2.14257812 -6.640625 2.44140625 C-9.19103452 3.04522837 -10.55322229 2.8473932 -13 2 C-12.34 2 -11.68 2 -11 2 C-11 1.34 -11 0.68 -11 0 C-6.97959015 -0.69584017 -3.91736581 -1.1700097 0 0 Z " fill="#A9303A" transform="translate(151,108)"/>
<path d="M0 0 C1 2 1 2 0.3125 4.5625 C-1 7 -1 7 -3.125 7.8125 C-3.74375 7.874375 -4.3625 7.93625 -5 8 C-3.62845496 5.04590299 -2.01136276 2.55991624 0 0 Z " fill="#A5A8B4" transform="translate(275,359)"/>
<path d="M0 0 C-3.95523655 2.75668002 -7.22423661 3.5317879 -12 4 C-11 2 -11 2 -9.00390625 1.11328125 C-7.79541016 0.71689453 -7.79541016 0.71689453 -6.5625 0.3125 C-5.75941406 0.04050781 -4.95632812 -0.23148438 -4.12890625 -0.51171875 C-2 -1 -2 -1 0 0 Z " fill="#793347" transform="translate(129,29)"/>
<path d="M0 0 C8.57142857 0.71428571 8.57142857 0.71428571 12 4 C7.12335991 4.34833144 4.22949995 3.41685712 0 1 C0 0.67 0 0.34 0 0 Z " fill="#606680" transform="translate(128,330)"/>
<path d="M0 0 C0.66 0.33 1.32 0.66 2 1 C0.29374499 3.78388975 -0.47626739 4.85384206 -3.6875 5.75 C-4.8321875 5.87375 -4.8321875 5.87375 -6 6 C-4 4 -2 2 0 0 Z " fill="#6B344A" transform="translate(43,150)"/>
</svg>
